<svg width="20" height="20" viewBox="0 0 20 20" fill="none" xmlns="http://www.w3.org/2000/svg">
<path d="M10.625 5.83337C10.625 5.4882 10.3452 5.20837 10 5.20837C9.65483 5.20837 9.37501 5.4882 9.37501 5.83337V10C9.37501 10.2155 9.48602 10.4158 9.66876 10.53L12.1688 12.0925C12.4615 12.2755 12.8471 12.1865 13.03 11.8938C13.213 11.6011 13.124 11.2155 12.8313 11.0325L10.625 9.65364V5.83337Z" fill="white"/>
<path fill-rule="evenodd" clip-rule="evenodd" d="M10 2.70837C5.97293 2.70837 2.70834 5.97296 2.70834 10C2.70834 14.0271 5.97293 17.2917 10 17.2917C14.0271 17.2917 17.2917 14.0271 17.2917 10C17.2917 5.97296 14.0271 2.70837 10 2.70837ZM3.95834 10C3.95834 6.66332 6.66329 3.95837 10 3.95837C13.3367 3.95837 16.0417 6.66332 16.0417 10C16.0417 13.3368 13.3367 16.0417 10 16.0417C6.66329 16.0417 3.95834 13.3368 3.95834 10Z" fill="white"/>
</svg>
