<svg width="32" height="32" viewBox="0 0 32 32" fill="none" xmlns="http://www.w3.org/2000/svg">
<path fill-rule="evenodd" clip-rule="evenodd" d="M4.33334 13.3731C4.33334 9.7724 7.49219 7 11.2 7C13.1113 7 14.7931 7.89618 16 9.05578C17.2069 7.89618 18.8887 7 20.8 7C24.5078 7 27.6667 9.7724 27.6667 13.3731C27.6667 15.8396 26.6148 18.0086 25.1576 19.842C23.7028 21.6723 21.7999 23.2257 19.978 24.488C19.2821 24.9701 18.578 25.4148 17.9337 25.743C17.3287 26.0511 16.633 26.3333 16 26.3333C15.367 26.3333 14.6713 26.0511 14.0663 25.743C13.422 25.4148 12.718 24.9701 12.022 24.488C10.2001 23.2257 8.29717 21.6723 6.84243 19.8421C5.38518 18.0086 4.33334 15.8396 4.33334 13.3731ZM11.2 9C8.42767 9 6.33334 11.0388 6.33334 13.3731C6.33334 15.2444 7.12772 16.9867 8.40812 18.5976C9.69105 20.2117 11.4172 21.6359 13.161 22.8439C13.8208 23.3011 14.4423 23.69 14.9739 23.9608C15.5449 24.2515 15.8756 24.3333 16 24.3333C16.1244 24.3333 16.4551 24.2515 17.0261 23.9608C17.5577 23.69 18.1792 23.3011 18.839 22.8439C20.5828 21.6359 22.309 20.2117 23.5919 18.5976C24.8723 16.9867 25.6667 15.2444 25.6667 13.3731C25.6667 11.0388 23.5723 9 20.8 9C19.2078 9 17.7211 9.95123 16.7928 11.1586C16.6035 11.4047 16.3105 11.549 16 11.549C15.6895 11.549 15.3965 11.4047 15.2072 11.1586C14.2789 9.95123 12.7922 9 11.2 9Z" fill="white"/>
</svg>
