<svg width="32" height="32" viewBox="0 0 32 32" fill="none" xmlns="http://www.w3.org/2000/svg">
<g clip-path="url(#clip0_3007_821)">
<path d="M26.6666 23.3334C27.1803 23.3337 27.6741 23.5315 28.0458 23.886C28.4176 24.2404 28.6387 24.7243 28.6633 25.2373C28.688 25.7503 28.5144 26.2532 28.1784 26.6417C27.8424 27.0302 27.3699 27.2745 26.8586 27.3241L26.6666 27.3334H5.33331C4.81969 27.3332 4.32585 27.1353 3.95413 26.7809C3.58241 26.4264 3.3613 25.9426 3.33661 25.4295C3.31193 24.9165 3.48557 24.4136 3.82155 24.0251C4.15753 23.6367 4.63009 23.3923 5.14131 23.3427L5.33331 23.3334H26.6666ZM26.6666 14.0001C27.1971 14.0001 27.7058 14.2108 28.0809 14.5859C28.4559 14.9609 28.6666 15.4696 28.6666 16.0001C28.6666 16.5305 28.4559 17.0392 28.0809 17.4143C27.7058 17.7894 27.1971 18.0001 26.6666 18.0001H5.33331C4.80288 18.0001 4.29417 17.7894 3.9191 17.4143C3.54403 17.0392 3.33331 16.5305 3.33331 16.0001C3.33331 15.4696 3.54403 14.9609 3.9191 14.5859C4.29417 14.2108 4.80288 14.0001 5.33331 14.0001H26.6666ZM26.6666 4.66675C27.1971 4.66675 27.7058 4.87746 28.0809 5.25253C28.4559 5.62761 28.6666 6.13631 28.6666 6.66675C28.6666 7.19718 28.4559 7.70589 28.0809 8.08096C27.7058 8.45603 27.1971 8.66675 26.6666 8.66675H5.33331C4.80288 8.66675 4.29417 8.45603 3.9191 8.08096C3.54403 7.70589 3.33331 7.19718 3.33331 6.66675C3.33331 6.13631 3.54403 5.62761 3.9191 5.25253C4.29417 4.87746 4.80288 4.66675 5.33331 4.66675H26.6666Z" fill="#F8F8F8"/>
</g>
<defs>
<clipPath id="clip0_3007_821">
<rect width="32" height="32" fill="white"/>
</clipPath>
</defs>
</svg>
