<svg width="60" height="57" viewBox="0 0 60 57" fill="none" xmlns="http://www.w3.org/2000/svg">
<g filter="url(#filter0_d_1_600)">
<path d="M45.4958 27.5269H42.7772C42.725 27.5269 42.675 27.5062 42.6382 27.4693C42.6013 27.4325 42.5806 27.3825 42.5806 27.3304V19.7387C42.5806 18.7257 42.1782 17.7543 41.4619 17.038C40.7456 16.3217 39.7742 15.9193 38.7612 15.9193H31.1696C31.1174 15.9193 31.0674 15.8986 31.0306 15.8617C30.9937 15.8249 30.973 15.7749 30.973 15.7227V13.0041C30.973 10.3367 28.8598 8.10359 26.1923 8.05739C25.546 8.04604 24.904 8.16351 24.3036 8.40294C23.7032 8.64237 23.1565 8.99898 22.6953 9.45195C22.2342 9.90493 21.8679 10.4452 21.6178 11.0412C21.3678 11.6373 21.2389 12.2772 21.2387 12.9235V15.7227C21.2387 15.7749 21.218 15.8249 21.1811 15.8617C21.1443 15.8986 21.0943 15.9193 21.0421 15.9193H13.4505C12.4187 15.9224 11.43 16.3337 10.7004 17.0633C9.97078 17.7929 9.55951 18.7816 9.5564 19.8134V26.7308C9.5564 26.7829 9.57711 26.8329 9.61397 26.8698C9.65084 26.9067 9.70083 26.9274 9.75297 26.9274H12.3979C15.2845 26.9274 17.6739 29.4317 17.7142 32.3184C17.7554 35.2542 15.4034 37.9354 12.4765 37.9354H9.75297C9.70083 37.9354 9.65084 37.9562 9.61397 37.993C9.57711 38.0299 9.5564 38.0799 9.5564 38.132V45.0494C9.55951 46.0812 9.97078 47.0699 10.7004 47.7995C11.43 48.5291 12.4187 48.9404 13.4505 48.9435H20.3679C20.42 48.9435 20.47 48.9228 20.5069 48.8859C20.5438 48.8491 20.5645 48.7991 20.5645 48.7469V46.6898C20.5645 43.7137 22.997 41.1514 25.9702 41.0816C28.9286 41.0128 31.5725 43.0778 31.5725 46.0234V48.7469C31.5725 48.7991 31.5932 48.8491 31.6301 48.8859C31.667 48.9228 31.717 48.9435 31.7691 48.9435H38.7612C39.7742 48.9435 40.7456 48.5411 41.4619 47.8248C42.1782 47.1085 42.5806 46.1371 42.5806 45.1241V37.4578C42.5806 37.4056 42.6013 37.3556 42.6382 37.3188C42.675 37.2819 42.725 37.2612 42.7772 37.2612H45.5764C48.292 37.2612 50.4435 35.033 50.4435 32.3076C50.4435 29.5821 48.1632 27.5269 45.4958 27.5269Z" fill="white"/>
</g>
<defs>
<filter id="filter0_d_1_600" x="8.5564" y="8.05664" width="41.8871" height="43.887" filterUnits="userSpaceOnUse" color-interpolation-filters="sRGB">
<feFlood flood-opacity="0" result="BackgroundImageFix"/>
<feColorMatrix in="SourceAlpha" type="matrix" values="0 0 0 0 0 0 0 0 0 0 0 0 0 0 0 0 0 0 127 0" result="hardAlpha"/>
<feOffset dx="-1" dy="3"/>
<feComposite in2="hardAlpha" operator="out"/>
<feColorMatrix type="matrix" values="0 0 0 0 0.303725 0 0 0 0 0.493401 0 0 0 0 0.718094 0 0 0 1 0"/>
<feBlend mode="normal" in2="BackgroundImageFix" result="effect1_dropShadow_1_600"/>
<feBlend mode="normal" in="SourceGraphic" in2="effect1_dropShadow_1_600" result="shape"/>
</filter>
</defs>
</svg>
