<svg width="18" height="18" viewBox="0 0 18 18" fill="none" xmlns="http://www.w3.org/2000/svg">
<path fill-rule="evenodd" clip-rule="evenodd" d="M7.33335 13.9998C3.65145 13.9998 0.666687 11.0151 0.666687 7.33317C0.666687 3.65127 3.65145 0.666504 7.33335 0.666504C11.0153 0.666504 14 3.65127 14 7.33317C14 8.87379 13.4774 10.2924 12.5999 11.4213L17.0892 15.9106L15.9107 17.0892L11.4213 12.5998C10.2924 13.4773 8.87392 13.9998 7.33335 13.9998ZM12.3333 7.33333C12.3333 10.0948 10.0948 12.3333 7.33333 12.3333C4.57191 12.3333 2.33333 10.0948 2.33333 7.33333C2.33333 4.57191 4.57191 2.33333 7.33333 2.33333C10.0948 2.33333 12.3333 4.57191 12.3333 7.33333Z" fill="#3683A4"/>
</svg>