<svg width="112" height="95" viewBox="0 0 112 95" fill="none" xmlns="http://www.w3.org/2000/svg">
<g filter="url(#filter0_i_1_2358)">
<g clip-path="url(#clip0_1_2358)">
<rect width="112" height="95" rx="4" fill="#8BB0E8"/>
<rect x="16.9395" y="27.4543" width="95.03" height="80.6058" rx="3.39393" fill="#D9D9D9"/>
<path d="M-73 58.9713C-72.0213 59.0529 -69.966 59.0692 -69.5745 58.482C-69.0852 57.7479 -69.0852 57.2586 -68.1065 56.5246C-67.1278 55.7905 -66.6384 54.5672 -63.947 53.8331C-61.2555 53.0991 -61.5002 52.1204 -59.2981 52.3651C-57.096 52.6097 -56.1173 51.3863 -55.628 50.897C-55.1386 50.4076 -53.6706 51.1417 -52.9365 50.4076C-52.2025 49.6736 -51.9578 48.4502 -50.2451 48.4502C-48.5324 48.4502 -49.5111 47.4715 -48.2877 47.4715C-47.0643 47.4715 -47.0643 48.4502 -45.1069 48.4502C-43.1495 48.4502 -40.458 48.6949 -39.724 47.7162C-38.99 46.7375 -38.0113 43.0673 -34.5858 42.3333C-32.4778 41.8816 -32.3157 41.8932 -32.3317 41.9119C-32.307 41.9019 -32.252 41.8816 -32.139 41.844C-31.405 41.5993 -29.6923 38.4185 -28.9583 38.4185C-28.2242 38.4185 -25.5328 38.1738 -24.7988 37.9291C-24.0647 37.6845 -24.0647 36.4611 -22.352 36.4611C-20.6393 36.4611 -18.1925 29.8548 -14.2777 28.3868C-10.3628 26.9187 -10.6075 24.4719 -9.62882 24.2273C-8.65011 23.9826 -6.93738 22.0252 -6.44802 22.0252C-5.95867 22.0252 -4.73529 21.2911 -3.75658 21.2911C-2.77788 21.2911 -2.04385 22.5145 -1.30982 22.5145C-0.57579 22.5145 -0.820465 24.2273 0.892265 24.2273C2.605 24.2273 3.09435 23.2485 4.07306 24.2273C5.05177 25.206 5.54111 26.9187 6.7645 26.9187C7.98788 26.9187 9.45594 27.6527 10.4346 27.6527C11.4134 27.6527 13.8601 28.1421 14.1048 29.6101C14.3495 31.0782 14.8388 31.0782 15.5729 31.0782C16.3069 31.0782 18.9983 31.0782 19.7323 32.3016C20.4664 33.525 21.4451 35.4824 22.6685 35.4824C23.8918 35.4824 26.0939 36.9504 26.0939 37.4398C26.0939 37.9291 28.7854 40.1312 29.2747 40.1312C29.7641 40.1312 31.2321 39.8865 31.7215 40.1312C32.2108 40.3759 33.6789 42.578 34.4129 42.578C35.147 42.578 36.3703 42.8227 36.8597 42.0886C37.349 41.3546 39.5511 38.6632 40.7745 38.4185C41.9979 38.1738 41.2639 37.6845 42.2426 37.4398C43.2213 37.1951 44.6893 38.4185 45.4234 38.1738C46.1574 37.9291 48.6042 35.2377 49.8275 35.2377C51.0509 35.2377 53.253 34.993 53.7424 33.7696C54.2317 32.5462 55.9445 32.7909 56.1891 32.5462C56.4338 32.3016 59.8593 33.525 60.5933 35.4824C61.3273 37.4398 66.4655 41.3546 66.9549 41.3546C67.4442 41.3546 69.157 41.1099 69.891 40.6206C70.625 40.1312 74.0505 39.8865 74.7845 41.3546C75.5186 42.8227 76.4973 43.8014 76.7419 43.8014C76.9866 43.8014 79.4334 45.2694 80.4121 45.0247C81.3908 44.7801 85.0609 51.1417 86.2843 51.1417C87.5077 51.1417 89.2204 54.5671 89.7098 54.3224C90.1991 54.0778 91.9119 54.3224 93.1353 55.3012C94.3586 56.2799 95.3374 54.5671 96.3161 54.3224C97.2948 54.0778 100.231 53.5884 100.965 54.3224C101.699 55.0565 103.656 54.8118 104.39 54.0778C105.124 53.3437 106.103 52.8544 107.326 52.8544C108.55 52.8544 111.486 52.8544 112.22 53.8331C112.954 54.8118 114.667 54.3224 114.911 53.8331C115.156 53.3437 115.645 52.8544 116.38 52.8544C117.114 52.8544 118.092 50.4076 118.582 50.4076C119.071 50.4076 121.028 50.4076 121.518 50.1629C122.007 49.9183 123.964 47.7162 124.943 47.9609C125.922 48.2055 127.39 46.9822 127.39 46.7375C127.39 46.4928 129.103 45.2694 130.081 46.0034C131.06 46.7375 130.815 45.7588 131.549 45.7588C132.283 45.7588 135.22 45.7588 135.709 47.4715C137.014 47.2268 139.771 46.8353 140.358 47.2268C141.092 47.7162 141.581 50.897 142.805 50.897C144.028 50.897 145.007 53.3437 146.719 53.0991C148.432 52.8544 150.145 53.5884 151.368 54.3224C152.592 55.0565 153.081 54.5671 153.815 54.5671C154.549 54.5671 155.528 55.5458 156.262 56.2799C156.849 56.8671 156.506 101.545 156.262 123.811H-73V58.9713Z" fill="#9DADBD"/>
<rect x="88.4337" y="72.3275" width="6.7168" height="15.6725" fill="#703D18"/>
<path fill-rule="evenodd" clip-rule="evenodd" d="M91.8706 4.44718C92.1289 3.85658 92.9641 3.84932 93.2327 4.43535L99.2912 17.6535C100.259 19.7649 101.476 21.7529 102.916 23.575L111.296 34.176C111.682 34.6653 111.334 35.3851 110.71 35.3851H103.207C104.402 37.6406 105.8 39.7845 107.385 41.7897L119.521 57.1428C120.081 57.8515 119.576 58.8939 118.673 58.8939H107.337C107.353 58.9142 107.369 58.9345 107.385 58.9548L119.521 74.3079C120.081 75.0166 119.576 76.059 118.673 76.059H66.0829C65.1717 76.059 64.6694 75.0007 65.2455 74.2948L77.3582 59.4527C77.5092 59.2676 77.6586 59.0814 77.8064 58.8939H66.0829C65.1717 58.8939 64.6694 57.8356 65.2455 57.1296L77.3582 42.2875C79.1102 40.1408 80.6446 37.8285 81.9405 35.3851H74.3979C73.7688 35.3851 73.4219 34.6543 73.8197 34.1669L82.1832 23.9188C83.8549 21.8705 85.2397 19.604 86.2993 17.1818L91.8706 4.44718Z" fill="#1A621C"/>
<circle cx="85.4484" cy="28.2951" r="1.49262" fill="#EB4E4E"/>
<circle cx="105.599" cy="47.6992" r="1.49262" fill="#37BDF7"/>
<circle cx="92.9116" cy="41.7287" r="1.49262" fill="#D6DA10"/>
<circle cx="104.106" cy="69.3422" r="1.49262" fill="#37BDF7"/>
<circle cx="81.717" cy="69.3422" r="1.49262" fill="#EB4E4E"/>
<circle cx="92.1652" cy="12.6226" r="1.49262" fill="#D6DA10"/>
<circle cx="107.091" cy="32.773" r="1.49262" fill="#EB4E4E"/>
<circle cx="73.5075" cy="52.9234" r="1.49262" fill="#D6DA10"/>
<rect x="-4.21094" y="84.787" width="128.976" height="57.2124" fill="white"/>
<rect x="8.36487" y="77.3798" width="5.83722" height="13.6202" fill="#703D18"/>
<path fill-rule="evenodd" clip-rule="evenodd" d="M11.3515 18.3886C11.5761 17.8754 12.3019 17.8691 12.5353 18.3783L17.8004 29.8656C18.6414 31.7005 19.6991 33.4281 20.9507 35.0116L28.2328 44.2244C28.5689 44.6496 28.2661 45.2751 27.724 45.2751H21.2038C22.2423 47.2353 23.4575 49.0984 24.8349 50.841L35.3813 64.1836C35.8681 64.7995 35.4295 65.7054 34.6444 65.7054H24.7931C24.807 65.723 24.8209 65.7407 24.8349 65.7584L35.3813 79.1009C35.8681 79.7168 35.4295 80.6227 34.6444 80.6227H-11.0589C-11.8508 80.6227 -12.2873 79.703 -11.7866 79.0895L-1.26013 66.191C-1.12888 66.0302 -0.999038 65.8683 -0.87061 65.7054H-11.0589C-11.8508 65.7054 -12.2873 64.7857 -11.7866 64.1721L-1.26013 51.2737C0.262425 49.4081 1.5959 47.3986 2.72206 45.2751H-3.83304C-4.37983 45.2751 -4.68125 44.6401 -4.33553 44.2165L2.93277 35.3104C4.3855 33.5303 5.58892 31.5606 6.50984 29.4556L11.3515 18.3886Z" fill="#1A621C"/>
<circle cx="5.77091" cy="39.1136" r="1.29716" fill="#EB4E4E"/>
<circle cx="23.2825" cy="55.9767" r="1.29716" fill="#37BDF7"/>
<circle cx="12.2565" cy="50.788" r="1.29716" fill="#D6DA10"/>
<circle cx="21.9849" cy="74.7855" r="1.29716" fill="#37BDF7"/>
<circle cx="2.52812" cy="74.7855" r="1.29716" fill="#EB4E4E"/>
<circle cx="11.6081" cy="25.4934" r="1.29716" fill="#D6DA10"/>
<circle cx="24.5793" cy="43.005" r="1.29716" fill="#EB4E4E"/>
<path d="M45.8433 101.247C35.2521 99.1454 31.7638 89.5139 31.3435 84.9608H85.0348C83.3579 97.6424 73.8403 100.497 72.7496 100.824L72.7415 100.827C71.6908 101.142 59.0823 103.874 45.8433 101.247Z" fill="#F1F1F1"/>
<g clip-path="url(#clip1_1_2358)">
<path d="M83.9785 40.3056C85.0293 55.8561 72.7324 58.3778 58.3412 58.3778C43.95 58.3778 31.338 56.0663 32.7039 40.3056C33.9059 26.4362 43.95 18.9762 58.3412 18.9762C72.7324 18.9762 83.1195 27.592 83.9785 40.3056Z" fill="#F1F1F1"/>
<path fill-rule="evenodd" clip-rule="evenodd" d="M35.5447 30.2187C36.7355 28.3975 39.6424 24.6999 42.5844 24.4477C46.2619 24.1325 52.356 26.9694 52.356 34.3244V42.625H58.2392V42.6292H64.1231V34.3286C64.1231 26.9736 70.2173 24.1367 73.8947 24.4519C76.8367 24.7041 79.8488 28.5026 81.0396 30.3238C78.6115 25.0942 73.7121 21.7437 68.7463 20.1404C64.773 18.8576 60.8244 18.7314 58.24 18.7781V18.7739C55.6557 18.7271 51.7067 18.8532 47.7329 20.1361C42.767 21.7394 37.9727 24.9891 35.5447 30.2187Z" fill="#3C3135"/>
<path d="M54.4583 52.0735C49.1627 51.4851 45.5272 48.6762 44.3715 47.3453L72.5305 47.1351C70.2189 50.8126 61.0778 52.809 54.4583 52.0735Z" fill="#DF921C"/>
<path d="M58.3466 50.4033C50.6133 50.6555 45.3878 48.0567 43.7417 46.7258C43.7417 46.4106 48.2598 40.7368 58.3466 40.4216C68.4334 40.1063 72.8464 46.7258 72.5312 47.041C72.216 47.3562 68.0131 50.0881 58.3466 50.4033Z" fill="#FFC921"/>
<ellipse cx="65.6381" cy="43.9369" rx="1.26085" ry="0.840568" transform="rotate(36.3995 65.6381 43.9369)" fill="#2C2728"/>
<ellipse cx="1.26085" cy="0.840568" rx="1.26085" ry="0.840568" transform="matrix(-0.804899 0.593412 0.593412 0.804899 51.2349 42.5121)" fill="#2C2728"/>
<ellipse cx="76.4178" cy="37.5199" rx="4.88367" ry="6.4924" transform="rotate(-15.1343 76.4178 37.5199)" fill="#292826"/>
<ellipse cx="4.88367" cy="6.4924" rx="4.88367" ry="6.4924" transform="matrix(-0.965317 -0.261082 -0.261082 0.965317 46.473 32.4536)" fill="#292826"/>
</g>
<path d="M40.1691 55.3308L38.6981 56.6967C39.8539 60.1641 49.4451 59.8489 60.0275 59.8489C68.0129 59.8489 73.9319 58.0627 76.6288 56.4866L75.9983 55.3308H40.1691Z" fill="#F1F1F1"/>
<path d="M76.7573 56.1714C77.3877 56.5566 78.6486 57.3692 78.6486 57.5373C78.6486 57.7475 83.4819 60.4793 84.5326 62.7909C85.5833 65.1024 90.3115 74.0335 90.5216 74.1385C90.7318 74.2436 90.8368 74.874 91.2571 75.0842C91.6774 75.2943 92.7281 75.5045 92.7281 76.345C92.7281 77.1856 91.6774 79.7073 90.9419 80.4428C90.2064 81.1783 88.6303 82.3341 87.2644 81.5986C85.8985 80.8631 86.634 80.0225 86.4239 79.6022C86.2897 79.3339 86.027 79.0227 85.7453 78.5867C85.5921 78.8321 85.5832 79.3921 85.5832 79.9174C85.5832 80.4428 86.2136 82.3341 86.1085 83.1746C86.0035 84.0152 85.2681 84.8558 82.4311 86.7471C79.5941 88.6383 68.3515 89.584 67.511 89.689C66.6704 89.7941 53.5365 90.1093 43.87 89.1637C34.2034 88.2181 32.102 85.6964 30.9462 84.6456C29.7905 83.5949 30.0006 81.3884 30.4209 80.8631C30.7571 80.4428 30.6887 79.217 30.6125 78.6566C30.5209 78.8587 30.4546 78.9718 30.4209 78.9718C30.1057 78.9718 29.7905 79.6022 29.6854 80.2327C29.5803 80.8631 28.2144 82.4391 26.4282 81.5986C24.642 80.758 23.8015 77.711 23.5914 76.6602C23.3812 75.6095 24.6421 75.2943 24.9573 75.1892C25.2725 75.0842 25.5877 74.6639 25.6928 74.1385C25.7978 73.6132 28.0043 70.1458 29.7905 66.0481C31.5768 61.9503 36.7252 57.9576 37.0405 57.7475C37.2926 57.5793 38.5465 56.6267 39.1419 56.1714C39.4571 57.6424 47.3374 58.6931 59.3155 59.0083C68.898 59.2605 74.9361 57.2221 76.7573 56.1714Z" fill="#980808"/>
<path d="M26.7528 81.4935C26.4166 81.4935 25.0016 79.7423 24.3362 78.8667C24.161 79.0418 23.7688 79.6022 23.6007 80.4428C23.3905 81.4935 24.2311 82.8594 24.9666 82.9645C25.555 83.0485 26.4026 82.0188 26.7528 81.4935Z" fill="#F1F1F1"/>
<path d="M89.5525 81.4935C89.8887 81.4935 91.3037 79.7423 91.9691 78.8667C92.1443 79.0418 92.5365 79.6022 92.7046 80.4428C92.9148 81.4935 92.0742 82.8594 91.3387 82.9645C90.7503 83.0485 89.9027 82.0188 89.5525 81.4935Z" fill="#F1F1F1"/>
<path d="M52.5513 71.9906C52.6047 71.9308 52.6692 71.8821 52.7414 71.8473C52.8135 71.8124 52.8918 71.7922 52.9718 71.7876C53.0518 71.783 53.1319 71.7943 53.2075 71.8206C53.2831 71.847 53.3528 71.888 53.4126 71.9414L55.3594 73.6777L54.5473 74.5883L52.6005 72.8519C52.5407 72.7986 52.492 72.734 52.4572 72.6619C52.4224 72.5897 52.4021 72.5114 52.3975 72.4314C52.393 72.3514 52.4042 72.2713 52.4306 72.1957C52.457 72.1201 52.498 72.0504 52.5513 71.9906Z" fill="white"/>
<path d="M63.3188 74.5882L62.5068 73.6777L64.4536 71.9413C64.5743 71.8337 64.7329 71.7783 64.8944 71.7876C65.0559 71.7968 65.2072 71.8698 65.3148 71.9906C65.4225 72.1113 65.4778 72.2699 65.4686 72.4314C65.4594 72.5929 65.3864 72.7442 65.2656 72.8518L63.3188 74.5882Z" fill="white"/>
<path d="M64.1289 75.7177C64.5632 77.6408 65.1577 78.878 64.8616 79.5885C64.706 79.962 64.3866 80.2752 63.8579 80.2752C63.0338 80.2752 63.0338 79.3032 62.2095 79.3032C61.3853 79.3032 61.3855 80.2752 60.5613 80.2752C59.7372 80.2752 59.7373 79.3032 58.9133 79.3032C58.0892 79.3032 58.0892 80.2752 57.2651 80.2752C56.441 80.2752 56.4411 79.3032 55.6171 79.3032C54.793 79.3032 54.7931 80.2752 53.9692 80.2752C53.48 80.2752 53.2034 79.9871 53.028 79.6541C52.6066 78.8542 53.5889 77.094 53.9692 75.5418C54.3894 73.8266 54.354 71.6903 54.4104 70.4018C54.5191 67.917 56.4264 65.8983 58.9138 65.8983C61.4012 65.8983 63.2361 67.9212 63.4173 70.4018C63.5149 71.739 63.7314 73.9574 64.1289 75.7177Z" fill="white"/>
<path d="M57.2198 70.6923C57.4955 70.6923 57.719 70.4688 57.719 70.1931C57.719 69.9174 57.4955 69.6939 57.2198 69.6939C56.9441 69.6939 56.7206 69.9174 56.7206 70.1931C56.7206 70.4688 56.9441 70.6923 57.2198 70.6923Z" fill="#292A2E"/>
<path d="M60.6419 70.6923C60.9176 70.6923 61.1411 70.4688 61.1411 70.1931C61.1411 69.9174 60.9176 69.6939 60.6419 69.6939C60.3662 69.6939 60.1427 69.9174 60.1427 70.1931C60.1427 70.4688 60.3662 70.6923 60.6419 70.6923Z" fill="#292A2E"/>
<path d="M59.828 71.5406C59.8568 71.5405 59.8853 71.5469 59.9113 71.5592C59.9374 71.5715 59.9604 71.5895 59.9786 71.6118C59.9968 71.6341 60.0099 71.6602 60.0167 71.6882C60.0236 71.7161 60.0242 71.7453 60.0184 71.7735C59.9113 72.274 59.4666 72.5886 58.9341 72.5886C58.4016 72.5886 57.9568 72.2741 57.8498 71.7735C57.844 71.7453 57.8446 71.7161 57.8514 71.6881C57.8583 71.6602 57.8713 71.6341 57.8896 71.6118C57.9078 71.5894 57.9308 71.5715 57.9569 71.5592C57.9829 71.5469 58.0114 71.5405 58.0402 71.5406H59.828Z" fill="white"/>
<path d="M58.9338 72.6493C58.3601 72.6493 57.9005 72.3024 57.7901 71.7861C57.7822 71.7494 57.7827 71.7113 57.7915 71.6748C57.8003 71.6382 57.8172 71.6041 57.841 71.575C57.8649 71.5453 57.8952 71.5213 57.9296 71.5049C57.964 71.4884 58.0017 71.4799 58.0399 71.48H59.8278C59.866 71.4799 59.9037 71.4884 59.9381 71.5049C59.9725 71.5213 60.0028 71.5453 60.0268 71.575C60.0505 71.6041 60.0674 71.6382 60.0762 71.6748C60.085 71.7113 60.0855 71.7494 60.0776 71.7861C59.967 72.3024 59.5073 72.6493 58.9338 72.6493ZM58.0398 71.6013C58.0197 71.6013 57.9999 71.6057 57.9819 71.6144C57.9638 71.623 57.9479 71.6356 57.9353 71.6512C57.923 71.6663 57.9142 71.684 57.9096 71.703C57.905 71.7219 57.9048 71.7417 57.9088 71.7608C58.0069 72.2196 58.4188 72.5278 58.9337 72.5278C59.4486 72.5278 59.8604 72.2196 59.9586 71.7608C59.9626 71.7417 59.9623 71.7219 59.9577 71.703C59.9531 71.684 59.9444 71.6663 59.932 71.6512C59.9194 71.6356 59.9035 71.623 59.8855 71.6144C59.8674 71.6057 59.8476 71.6013 59.8276 71.6013H58.0398Z" fill="#292A2E"/>
</g>
</g>
<defs>
<filter id="filter0_i_1_2358" x="0" y="0" width="112" height="95" filterUnits="userSpaceOnUse" color-interpolation-filters="sRGB">
<feFlood flood-opacity="0" result="BackgroundImageFix"/>
<feBlend mode="normal" in="SourceGraphic" in2="BackgroundImageFix" result="shape"/>
<feColorMatrix in="SourceAlpha" type="matrix" values="0 0 0 0 0 0 0 0 0 0 0 0 0 0 0 0 0 0 127 0" result="hardAlpha"/>
<feOffset/>
<feGaussianBlur stdDeviation="6"/>
<feComposite in2="hardAlpha" operator="arithmetic" k2="-1" k3="1"/>
<feColorMatrix type="matrix" values="0 0 0 0 0 0 0 0 0 0 0 0 0 0 0 0 0 0 0.08 0"/>
<feBlend mode="normal" in2="shape" result="effect1_innerShadow_1_2358"/>
</filter>
<clipPath id="clip0_1_2358">
<rect width="112" height="95" rx="4" fill="white"/>
</clipPath>
<clipPath id="clip1_1_2358">
<rect width="51.439" height="39.4016" fill="white" transform="translate(32.6029 18.9762)"/>
</clipPath>
</defs>
</svg>
