<svg width="1440" height="1024" viewBox="0 0 1440 1024" fill="none" xmlns="http://www.w3.org/2000/svg">
<g clip-path="url(#clip0_4201_934)">
<rect width="1440" height="1024" fill="white"/>
<g filter="url(#filter0_i_4201_934)">
<mask id="mask0_4201_934" style="mask-type:alpha" maskUnits="userSpaceOnUse" x="0" y="-301" width="1440" height="986">
<path d="M573.419 685C363.227 685 130.294 671.085 0 628.598V-301H1440V628.598C1272.22 626.888 803.845 685 573.419 685Z" fill="#D9D9D9"/>
</mask>
<g mask="url(#mask0_4201_934)">
<rect y="-338" width="1440" height="1198" fill="url(#paint0_linear_4201_934)"/>
<path d="M543.869 678.389C543.482 677.735 544.542 674.867 545.121 673.514C549.131 670.04 529.574 661.208 527.022 665.749C524.471 670.29 515.735 674.629 508.401 676.209C501.066 677.79 497.54 682.081 497.68 685.581C497.821 689.082 501.554 690.733 502.362 691.633C503.17 692.534 526.885 700.009 535.186 700.062C543.486 700.115 546.938 694.766 547.689 691.841C548.44 688.916 544.352 679.206 543.869 678.389Z" fill="#382E35"/>
<path d="M616.125 696.943C616.779 696.556 617.232 693.532 617.377 692.068C615.537 687.092 636.929 688.775 636.978 693.983C637.026 699.192 642.59 707.203 648.255 712.122C653.921 717.041 654.944 722.5 653.134 725.499C651.325 728.499 647.258 728.147 646.116 728.547C644.974 728.946 620.591 724.071 613.292 720.118C605.993 716.165 605.545 709.815 606.297 706.89C607.048 703.965 615.308 697.426 616.125 696.943Z" fill="#382E35"/>
<path d="M542.389 675.159C511.299 660.247 508.159 627.686 510.476 613.269L676.545 655.913C661.286 693.806 629.581 695.076 625.947 695.221L625.92 695.222C622.42 695.363 581.252 693.798 542.389 675.159Z" fill="#F1F1F1"/>
<g clip-path="url(#clip1_4201_934)">
<path d="M708.752 516.955C699.651 565.888 659.613 563.921 615.101 552.491C570.588 541.061 533.414 523.894 550.157 476.23C564.89 434.286 601.882 419.19 646.395 430.62C690.908 442.05 716.192 476.949 708.752 516.955Z" fill="#F1F1F1"/>
<path fill-rule="evenodd" clip-rule="evenodd" d="M566.954 447.287C572.083 442.6 584.011 433.472 593.311 435.029C604.936 436.974 621.533 450.589 615.691 473.339L609.098 499.013L627.298 503.686L627.294 503.699L645.494 508.372L652.087 482.698C657.928 459.949 679.031 456.014 690.155 459.91C699.054 463.027 705.354 477.168 707.591 483.747C704.234 465.643 691.741 451.388 677.655 442.485C666.383 435.361 654.269 431.835 646.238 429.926L646.241 429.913C638.285 427.716 625.97 424.97 612.66 425.782C596.027 426.797 578.617 433.04 566.954 447.287Z" fill="#3C3135"/>
<path d="M608.094 529.906C592.182 523.881 583.168 512.305 580.65 507.271L667.914 528.986C657.844 538.524 627.984 537.439 608.094 529.906Z" fill="#DF921C"/>
<path d="M621.445 527.828C597.325 522.466 583.227 510.278 579.192 504.854C579.443 503.879 597.924 489.918 629.373 496.954C660.822 503.99 669.214 527.97 667.989 528.694C666.764 529.419 651.594 534.531 621.445 527.828Z" fill="#FFC921"/>
<ellipse cx="649.137" cy="513.619" rx="4.0264" ry="2.68427" transform="rotate(50.8009 649.137 513.619)" fill="#2C2728"/>
<ellipse cx="4.0264" cy="2.68427" rx="4.0264" ry="2.68427" transform="matrix(-0.927196 0.374577 0.374577 0.927196 605.717 497.772)" fill="#2C2728"/>
<ellipse cx="687.576" cy="502.333" rx="15.5955" ry="20.7328" transform="rotate(-0.732874 687.576 502.333)" fill="#292826"/>
<ellipse cx="15.5955" cy="20.7328" rx="15.5955" ry="20.7328" transform="matrix(-0.870049 -0.492965 -0.492965 0.870049 598.978 462.879)" fill="#292826"/>
</g>
<path d="M561.308 528.632L555.673 531.688C556.494 543.331 586.411 549.974 619.143 558.379C643.842 564.721 663.568 563.897 673.162 561.164L672.13 557.089L561.308 528.632Z" fill="#F1F1F1"/>
<path d="M673.809 560.292C675.453 561.984 678.708 565.499 678.574 566.019C678.407 566.668 691.187 578.957 692.601 586.941C694.015 594.926 701.546 626.305 702.113 626.797C702.679 627.289 702.504 629.322 703.637 630.306C704.77 631.29 707.853 632.774 707.185 635.374C706.518 637.974 701.265 644.939 698.406 646.63C695.547 648.321 689.754 650.644 686.113 647.284C682.472 643.924 685.415 641.909 685.099 640.442C684.897 639.505 684.332 638.334 683.806 636.762C683.138 637.399 682.666 639.124 682.248 640.749C681.831 642.374 682.279 648.725 681.286 651.241C680.294 653.757 677.351 655.773 667.074 659.37C656.797 662.966 621.272 656.962 618.589 656.619C615.906 656.277 575.032 646.82 545.884 636.218C516.736 625.615 512.239 616.147 509.498 611.979C506.758 607.811 509.16 601.153 510.878 599.862C512.251 598.829 513.013 594.983 513.223 593.189C512.779 593.742 512.484 594.039 512.38 594.012C511.405 593.762 509.929 595.461 509.103 597.328C508.278 599.194 502.801 602.984 497.944 598.966C493.087 594.947 492.907 584.855 493.092 581.438C493.276 578.021 497.426 578.048 498.485 577.973C499.543 577.898 500.852 576.849 501.594 575.307C502.336 573.766 511.915 564.794 520.695 553.538C529.474 542.282 548.57 534.021 549.712 533.622C550.625 533.302 555.26 531.351 557.463 530.416C557.27 535.216 580.809 544.725 617.608 555.213C647.047 563.604 667.342 562.095 673.809 560.292Z" fill="#980808"/>
<path d="M499.031 598.898C497.991 598.631 495.006 592.091 493.643 588.854C492.962 589.257 491.304 590.679 490.116 593.145C488.632 596.228 490.147 601.12 492.338 602.03C494.091 602.757 497.531 600.245 499.031 598.898Z" fill="#F1F1F1"/>
<path d="M693.274 648.777C694.314 649.044 700.081 644.751 702.835 642.571C703.238 643.252 704.006 645.297 703.858 648.03C703.674 651.447 699.989 655.004 697.631 654.745C695.744 654.538 693.94 650.68 693.274 648.777Z" fill="#F1F1F1"/>
<path d="M588.877 599.814C589.101 599.664 589.352 599.56 589.616 599.507C589.88 599.454 590.152 599.453 590.416 599.505C590.68 599.557 590.931 599.661 591.155 599.81C591.38 599.959 591.572 600.151 591.722 600.374L596.608 607.654L593.204 609.939L588.317 602.659C588.167 602.436 588.063 602.185 588.01 601.921C587.957 601.657 587.956 601.385 588.008 601.121C588.06 600.857 588.164 600.605 588.313 600.381C588.462 600.157 588.654 599.964 588.877 599.814Z" fill="white"/>
<path d="M621.753 617.27L619.87 613.627L627.659 609.602C628.143 609.353 628.705 609.305 629.223 609.47C629.741 609.635 630.173 609.999 630.422 610.482C630.672 610.965 630.719 611.528 630.554 612.046C630.389 612.564 630.025 612.995 629.542 613.245L621.753 617.27Z" fill="white"/>
<path d="M623.447 621.624C623.253 628.247 624.154 632.772 622.596 634.838C621.777 635.924 620.476 636.676 618.755 636.234C616.072 635.545 616.884 632.381 614.201 631.692C611.518 631.003 610.706 634.167 608.023 633.478C605.34 632.789 606.153 629.625 603.47 628.936C600.788 628.248 599.975 631.412 597.292 630.723C594.609 630.034 595.422 626.87 592.74 626.181C590.057 625.492 589.245 628.656 586.563 627.968C584.97 627.559 584.31 626.39 584.018 625.159C583.314 622.203 587.984 617.294 590.519 612.559C593.321 607.326 594.992 600.342 596.252 596.194C598.684 588.196 606.58 583.219 614.678 585.298C622.775 587.378 627.057 595.497 625.574 603.724C624.774 608.159 623.624 615.561 623.447 621.624Z" fill="white"/>
<path d="M605.162 599.49C606.06 599.721 606.974 599.18 607.204 598.283C607.435 597.385 606.894 596.471 605.997 596.24C605.099 596.01 604.185 596.551 603.954 597.448C603.724 598.346 604.265 599.26 605.162 599.49Z" fill="#292A2E"/>
<path d="M616.306 602.352C617.203 602.582 618.118 602.042 618.348 601.144C618.578 600.247 618.038 599.332 617.14 599.102C616.243 598.871 615.328 599.412 615.098 600.31C614.867 601.207 615.408 602.122 616.306 602.352Z" fill="#292A2E"/>
<path d="M612.935 604.43C613.029 604.454 613.116 604.498 613.191 604.56C613.265 604.622 613.325 604.699 613.365 604.787C613.406 604.875 613.427 604.971 613.426 605.068C613.425 605.165 613.402 605.26 613.36 605.347C612.593 606.887 610.882 607.539 609.149 607.094C607.415 606.649 606.23 605.254 606.3 603.534C606.305 603.438 606.331 603.343 606.377 603.258C606.423 603.172 606.487 603.098 606.565 603.041C606.643 602.984 606.733 602.944 606.828 602.926C606.923 602.908 607.021 602.911 607.115 602.935L612.935 604.43Z" fill="white"/>
<path d="M609.098 607.292C607.23 606.812 606.024 605.299 606.096 603.526C606.101 603.399 606.135 603.276 606.194 603.164C606.253 603.053 606.337 602.956 606.438 602.881C606.541 602.804 606.66 602.751 606.785 602.727C606.911 602.702 607.041 602.706 607.165 602.738L612.986 604.232C613.11 604.264 613.226 604.323 613.324 604.406C613.422 604.488 613.501 604.591 613.554 604.708C613.607 604.823 613.633 604.948 613.631 605.074C613.629 605.201 613.599 605.325 613.543 605.438C612.751 607.026 610.965 607.771 609.098 607.292ZM607.064 603.133C606.998 603.116 606.93 603.114 606.864 603.127C606.798 603.14 606.736 603.168 606.682 603.208C606.629 603.247 606.585 603.297 606.555 603.355C606.524 603.413 606.507 603.477 606.504 603.542C606.44 605.118 607.523 606.466 609.199 606.896C610.875 607.327 612.474 606.667 613.177 605.256C613.206 605.197 613.221 605.133 613.222 605.067C613.223 605.001 613.209 604.937 613.182 604.877C613.154 604.816 613.113 604.761 613.061 604.718C613.009 604.675 612.949 604.644 612.883 604.627L607.064 603.133Z" fill="#292A2E"/>
<path d="M794.678 703.038C793.058 687.541 822.622 682.269 840.943 681.469C844.27 681.287 843.29 687.917 841.635 688.09L841.635 688.09C839.98 688.263 800.26 692.416 801.298 702.346C802.336 712.276 848.627 706.959 848.85 709.086C848.913 709.69 796.162 717.231 794.678 703.038Z" fill="#8E6947"/>
<path d="M961.396 477.676C928.373 469.082 912.379 488.936 908.51 499.937L919.088 569.101C985.537 580.558 993.316 542.936 995.933 535.97C998.551 529.004 1002.67 488.418 961.396 477.676Z" fill="#E3C795"/>
<path d="M775.892 479.711C809.673 474.898 822.128 503.392 824.731 514.759L813.045 575.1C745.728 578.986 740.227 538.653 739.708 533.687C738.934 526.286 733.666 485.727 775.892 479.711Z" fill="#E3C795"/>
<g filter="url(#filter1_i_4201_934)">
<path d="M957.739 490.514C929.811 484.204 916.078 499.57 912.703 508.042L921.082 561.009C977.332 569.229 984.249 540.303 986.528 534.936C988.808 529.57 992.65 498.401 957.739 490.514Z" fill="#E8B6B6"/>
</g>
<g filter="url(#filter2_i_4201_934)">
<path d="M783.506 492.653C811.969 489.534 815.442 520.066 817.84 528.864L811.976 566.833C755.158 568.655 750.495 539.342 749.889 533.544C749.275 527.668 747.928 496.551 783.506 492.653Z" fill="#E8B6B6"/>
</g>
<path d="M859.302 694.643L832.821 697.412C832.129 690.792 838.749 690.1 836.921 688.618C835.093 687.136 821.334 683.555 817.949 667.178C815.24 654.076 828.791 648.198 835.905 646.896L840.87 646.377L844.158 677.823C853.426 676.854 858.116 688.633 859.302 694.643Z" fill="#E3C795"/>
<path d="M904.205 689.949L930.685 687.18C929.993 680.56 923.373 681.252 924.855 679.424C926.337 677.596 939.058 671.247 938.983 654.523C938.923 641.145 924.449 638.197 917.219 638.395L912.254 638.914L915.542 670.359C906.274 671.328 904.122 683.823 904.205 689.949Z" fill="#E3C795"/>
<rect width="4.72689" height="4.72689" rx="1.57563" transform="matrix(-0.994579 0.103988 0.103988 0.994579 926.083 681.826)" fill="#FDE8D7"/>
<rect width="4.72689" height="4.72689" rx="1.57563" transform="matrix(-0.994579 0.103988 0.103988 0.994579 919.816 682.481)" fill="#FDE8D7"/>
<rect width="4.72689" height="4.72689" rx="1.57563" transform="matrix(-0.994579 0.103988 0.103988 0.994579 911.98 683.301)" fill="#FDE8D7"/>
<path fill-rule="evenodd" clip-rule="evenodd" d="M839.588 593.423C838.164 619.226 837.304 672.967 845.264 681.504C853.224 690.041 861.271 693.773 864.299 694.572L881.776 692.745L899.253 690.917C902.051 689.509 909.152 684.194 915.174 674.195C921.196 664.196 909.238 611.795 902.507 586.844L871.048 590.133L871.048 590.133L839.588 593.423Z" fill="#E3C795"/>
<path fill-rule="evenodd" clip-rule="evenodd" d="M839.588 593.423C838.164 619.226 837.304 672.967 845.264 681.504C853.224 690.041 861.271 693.773 864.299 694.572L881.776 692.745L899.253 690.917C902.051 689.509 909.152 684.194 915.174 674.195C921.196 664.196 909.238 611.795 902.507 586.844L871.048 590.133L871.048 590.133L839.588 593.423Z" fill="url(#paint1_linear_4201_934)" fill-opacity="0.2"/>
<g filter="url(#filter3_i_4201_934)">
<path fill-rule="evenodd" clip-rule="evenodd" d="M901.11 590.336C907.23 613.696 918.137 662.745 912.807 672.067C907.478 681.389 901.165 686.328 898.674 687.632L883.085 689.262L883.085 689.262L865.039 691.148C862.333 690.388 855.134 686.862 847.992 678.844C840.849 670.826 841.375 620.581 842.53 596.461L873.048 593.27L873.048 593.27L901.11 590.336Z" fill="#FDE8D7"/>
</g>
<g filter="url(#filter4_i_4201_934)">
<path d="M834.048 631.012C829.397 618.237 833.495 599.298 836.125 591.426L846.587 592.404C842.734 601.786 839.661 625.245 848.181 627.462C865.221 631.896 873.754 614.428 872.348 620.791C869.499 633.675 839.862 646.98 834.048 631.012Z" fill="#E3C795"/>
</g>
<path d="M844.653 597.663C844.026 597.729 837.546 597.878 834.385 597.945L834.923 595.512L845.273 596.014C845.327 596.537 845.28 597.598 844.653 597.663Z" fill="#D8B881"/>
<g filter="url(#filter5_i_4201_934)">
<path d="M911.48 622.916C913.388 609.455 905.461 591.774 901.259 584.616L891.225 587.737C896.937 596.118 904.795 618.434 896.918 622.366C881.164 630.229 869.202 614.904 871.894 620.838C877.346 632.855 909.095 639.741 911.48 622.916Z" fill="#E3C795"/>
</g>
<path d="M894.017 592.502C894.017 592.502 901.014 591.242 904.121 590.653L902.308 588.467L892.987 590.233C893.042 590.756 894.017 592.502 894.017 592.502Z" fill="#D8B881"/>
<path d="M810.787 521.552C811.161 508.399 820.074 497.03 832.758 493.529L855.389 487.282C858.575 486.403 861.885 486.057 865.184 486.258L887.847 487.642C901.346 488.466 912.617 498.232 915.355 511.475L924.329 554.889C927.917 572.242 915.736 588.9 898.111 590.742L842.584 596.548C824.567 598.432 809.014 584.016 809.528 565.908L810.787 521.552Z" fill="#FDE8D7"/>
<path fill-rule="evenodd" clip-rule="evenodd" d="M832.055 493.573C819.353 497.035 810.401 508.384 809.992 521.542L808.646 564.875C808.46 570.865 810.033 576.455 812.874 581.188C812.83 579.789 812.961 578.353 813.29 576.904C814.468 571.711 818.043 567.387 822.921 565.254L856.675 550.494C862.201 548.078 868.327 547.386 874.253 548.509L911.64 555.594C917.604 556.724 922.486 560.957 924.468 566.657C925.423 562.556 925.525 558.177 924.601 553.754L915.748 511.36C912.981 498.109 901.67 488.361 888.156 487.58L864.896 486.236C861.662 486.049 858.418 486.388 855.292 487.24L832.055 493.573Z" fill="#E3C795"/>
<path d="M876.795 545.984C877.067 548.58 872.82 552.736 867.108 553.333C861.396 553.931 856.381 550.743 856.11 548.146C855.838 545.55 860.249 542.961 865.961 542.364C871.673 541.766 876.524 543.387 876.795 545.984Z" fill="#4E4949"/>
<path d="M878.121 561.687C878.754 567.746 874.357 573.17 868.298 573.804C862.24 574.437 856.815 570.04 856.182 563.981" stroke="#4E4949" stroke-width="2.20588" stroke-linecap="round"/>
<ellipse cx="836.147" cy="554.194" rx="6.30252" ry="3.93908" transform="rotate(-22.1431 836.147 554.194)" fill="#E39D9D"/>
<ellipse cx="6.30252" cy="3.93908" rx="6.30252" ry="3.93908" transform="matrix(-0.984179 -0.177177 -0.177177 0.984179 905.01 544.98)" fill="#E39D9D"/>
<circle cx="834.248" cy="532.706" r="11.3754" transform="rotate(-25.5178 834.248 532.706)" fill="white"/>
<path fill-rule="evenodd" clip-rule="evenodd" d="M838.937 540.551C843.048 538.589 844.789 533.666 842.827 529.555C840.865 525.445 835.942 523.703 831.832 525.665C830.658 526.226 829.677 527.028 828.921 527.983C829.988 527.977 831.015 528.575 831.506 529.603C832.182 531.02 831.582 532.718 830.164 533.394C829.137 533.885 827.962 533.704 827.136 533.028C827.123 534.246 827.382 535.487 827.942 536.661C829.904 540.771 834.827 542.513 838.937 540.551Z" fill="#393939"/>
<circle cx="891.923" cy="526.675" r="11.3754" transform="rotate(-25.5178 891.923 526.675)" fill="white"/>
<path fill-rule="evenodd" clip-rule="evenodd" d="M893.735 534.821C897.846 532.859 899.587 527.937 897.625 523.826C895.663 519.716 890.74 517.974 886.63 519.936C885.456 520.497 884.475 521.299 883.719 522.254C884.786 522.248 885.813 522.846 886.303 523.873C886.98 525.291 886.38 526.988 884.962 527.665C883.935 528.155 882.76 527.975 881.934 527.298C881.921 528.517 882.179 529.758 882.74 530.932C884.702 535.042 889.625 536.784 893.735 534.821Z" fill="#393939"/>
<path d="M819.94 521.639C821.919 518.327 827.864 512.889 835.814 517.638" stroke="#AE8D52" stroke-width="1.4469" stroke-linecap="round"/>
<path d="M906.57 512.582C903.949 509.75 897.008 505.66 890.212 511.951" stroke="#AE8D52" stroke-width="1.4469" stroke-linecap="round"/>
</g>
</g>
</g>
<defs>
<filter id="filter0_i_4201_934" x="0" y="-305" width="1440" height="990" filterUnits="userSpaceOnUse" color-interpolation-filters="sRGB">
<feFlood flood-opacity="0" result="BackgroundImageFix"/>
<feBlend mode="normal" in="SourceGraphic" in2="BackgroundImageFix" result="shape"/>
<feColorMatrix in="SourceAlpha" type="matrix" values="0 0 0 0 0 0 0 0 0 0 0 0 0 0 0 0 0 0 127 0" result="hardAlpha"/>
<feOffset dy="-4"/>
<feGaussianBlur stdDeviation="6"/>
<feComposite in2="hardAlpha" operator="arithmetic" k2="-1" k3="1"/>
<feColorMatrix type="matrix" values="0 0 0 0 0 0 0 0 0 0 0 0 0 0 0 0 0 0 0.2 0"/>
<feBlend mode="normal" in2="shape" result="effect1_innerShadow_4201_934"/>
</filter>
<filter id="filter1_i_4201_934" x="912.704" y="489.032" width="75.2222" height="73.437" filterUnits="userSpaceOnUse" color-interpolation-filters="sRGB">
<feFlood flood-opacity="0" result="BackgroundImageFix"/>
<feBlend mode="normal" in="SourceGraphic" in2="BackgroundImageFix" result="shape"/>
<feColorMatrix in="SourceAlpha" type="matrix" values="0 0 0 0 0 0 0 0 0 0 0 0 0 0 0 0 0 0 127 0" result="hardAlpha"/>
<feOffset dy="6.65617"/>
<feComposite in2="hardAlpha" operator="arithmetic" k2="-1" k3="1"/>
<feColorMatrix type="matrix" values="0 0 0 0 0.890196 0 0 0 0 0.596078 0 0 0 0 0.596078 0 0 0 1 0"/>
<feBlend mode="normal" in2="shape" result="effect1_innerShadow_4201_934"/>
</filter>
<filter id="filter2_i_4201_934" x="749.69" y="492.43" width="68.1494" height="74.4846" filterUnits="userSpaceOnUse" color-interpolation-filters="sRGB">
<feFlood flood-opacity="0" result="BackgroundImageFix"/>
<feBlend mode="normal" in="SourceGraphic" in2="BackgroundImageFix" result="shape"/>
<feColorMatrix in="SourceAlpha" type="matrix" values="0 0 0 0 0 0 0 0 0 0 0 0 0 0 0 0 0 0 127 0" result="hardAlpha"/>
<feOffset dx="-3.32809" dy="6.65617"/>
<feComposite in2="hardAlpha" operator="arithmetic" k2="-1" k3="1"/>
<feColorMatrix type="matrix" values="0 0 0 0 0.891667 0 0 0 0 0.594444 0 0 0 0 0.594444 0 0 0 1 0"/>
<feBlend mode="normal" in2="shape" result="effect1_innerShadow_4201_934"/>
</filter>
<filter id="filter3_i_4201_934" x="841.845" y="590.336" width="72.3867" height="100.812" filterUnits="userSpaceOnUse" color-interpolation-filters="sRGB">
<feFlood flood-opacity="0" result="BackgroundImageFix"/>
<feBlend mode="normal" in="SourceGraphic" in2="BackgroundImageFix" result="shape"/>
<feColorMatrix in="SourceAlpha" type="matrix" values="0 0 0 0 0 0 0 0 0 0 0 0 0 0 0 0 0 0 127 0" result="hardAlpha"/>
<feOffset dy="1.57563"/>
<feComposite in2="hardAlpha" operator="arithmetic" k2="-1" k3="1"/>
<feColorMatrix type="matrix" values="0 0 0 0 0.970833 0 0 0 0 0.838941 0 0 0 0 0.73217 0 0 0 1 0"/>
<feBlend mode="normal" in2="shape" result="effect1_innerShadow_4201_934"/>
</filter>
<filter id="filter4_i_4201_934" x="831.935" y="591.426" width="40.563" height="46.8987" filterUnits="userSpaceOnUse" color-interpolation-filters="sRGB">
<feFlood flood-opacity="0" result="BackgroundImageFix"/>
<feBlend mode="normal" in="SourceGraphic" in2="BackgroundImageFix" result="shape"/>
<feColorMatrix in="SourceAlpha" type="matrix" values="0 0 0 0 0 0 0 0 0 0 0 0 0 0 0 0 0 0 127 0" result="hardAlpha"/>
<feOffset dy="1.57563"/>
<feComposite in2="hardAlpha" operator="arithmetic" k2="-1" k3="1"/>
<feColorMatrix type="matrix" values="0 0 0 0 0.845833 0 0 0 0 0.723115 0 0 0 0 0.503976 0 0 0 1 0"/>
<feBlend mode="normal" in2="shape" result="effect1_innerShadow_4201_934"/>
</filter>
<filter id="filter5_i_4201_934" x="871.514" y="584.615" width="40.2568" height="48.3303" filterUnits="userSpaceOnUse" color-interpolation-filters="sRGB">
<feFlood flood-opacity="0" result="BackgroundImageFix"/>
<feBlend mode="normal" in="SourceGraphic" in2="BackgroundImageFix" result="shape"/>
<feColorMatrix in="SourceAlpha" type="matrix" values="0 0 0 0 0 0 0 0 0 0 0 0 0 0 0 0 0 0 127 0" result="hardAlpha"/>
<feOffset dy="1.57563"/>
<feComposite in2="hardAlpha" operator="arithmetic" k2="-1" k3="1"/>
<feColorMatrix type="matrix" values="0 0 0 0 0.845833 0 0 0 0 0.723115 0 0 0 0 0.503976 0 0 0 1 0"/>
<feBlend mode="normal" in2="shape" result="effect1_innerShadow_4201_934"/>
</filter>
<linearGradient id="paint0_linear_4201_934" x1="720" y1="-338" x2="720" y2="860" gradientUnits="userSpaceOnUse">
<stop stop-color="#3A9ECA"/>
<stop offset="0.9999" stop-color="#2B627A"/>
</linearGradient>
<linearGradient id="paint1_linear_4201_934" x1="871.048" y1="590.133" x2="882.318" y2="692.739" gradientUnits="userSpaceOnUse">
<stop stop-color="#E3C795"/>
<stop offset="1" stop-color="#C2A674"/>
</linearGradient>
<clipPath id="clip0_4201_934">
<rect width="1440" height="1024" fill="white"/>
</clipPath>
<clipPath id="clip1_4201_934">
<rect width="164.265" height="125.825" fill="white" transform="translate(566.783 410.177) rotate(14.4014)"/>
</clipPath>
</defs>
</svg>
