<svg width="390" height="844" viewBox="0 0 390 844" fill="none" xmlns="http://www.w3.org/2000/svg">
<g clip-path="url(#clip0_26_69)">
<rect width="390" height="844" fill="white"/>
<g filter="url(#filter0_i_26_69)">
<mask id="mask0_26_69" style="mask-type:alpha" maskUnits="userSpaceOnUse" x="0" y="0" width="391" height="616">
<path d="M155.5 616C98.5 616 35.3333 607.307 0 580.763V0H390.5V580.763C345 579.695 217.987 616 155.5 616Z" fill="#D9D9D9"/>
</mask>
<g mask="url(#mask0_26_69)">
<rect x="-15" y="-11.899" width="418" height="640.713" fill="url(#paint0_linear_26_69)"/>
<path d="M12.7336 624.749C13.4562 624.516 14.5647 621.665 15.0286 620.269C14.3298 615.01 34.826 621.364 33.7255 626.455C32.6251 631.547 36.2881 640.587 40.7305 646.633C45.173 652.679 44.9684 658.229 42.5426 660.756C40.1167 663.284 36.2273 662.045 35.0254 662.183C33.8236 662.321 11.1136 652.194 4.86469 646.73C-1.38424 641.267 -0.422039 634.974 0.954927 632.286C2.33189 629.598 11.8304 625.04 12.7336 624.749Z" fill="#382E35"/>
<path d="M-54.392 587.256C-81.4331 565.861 -77.3227 533.408 -71.8873 519.856L80.7081 598.037C57.4763 631.637 26.2698 625.892 22.6936 625.233L22.667 625.228C19.2218 624.594 -20.5906 613.999 -54.392 587.256Z" fill="#F1F1F1"/>
<g clip-path="url(#clip1_26_69)">
<path d="M142.735 469.588C123.078 515.314 84.4576 504.575 43.5565 483.62C2.65533 462.664 -29.8232 437.73 -2.99177 394.926C20.6199 357.258 60.0289 350.681 100.93 371.637C141.831 392.592 158.807 432.204 142.735 469.588Z" fill="#F1F1F1"/>
<path fill-rule="evenodd" clip-rule="evenodd" d="M19.7686 370.394C25.8049 366.952 39.451 360.676 48.1796 364.243C59.0903 368.702 72.2794 385.639 61.5697 406.542L49.483 430.133L66.2058 438.701L66.1996 438.713L82.9224 447.281L95.0091 423.69C105.719 402.786 127.17 403.597 137.163 409.848C145.157 414.848 148.186 430.03 148.919 436.94C149.633 418.542 140.587 401.885 128.808 390.097C119.383 380.665 108.343 374.556 100.93 370.926L100.936 370.914C93.659 367.018 82.252 361.626 69.0901 359.486C52.6421 356.812 34.2842 359.067 19.7686 370.394Z" fill="#3C3135"/>
<path d="M41.6972 460.047C27.5034 450.663 21.2612 437.387 19.9143 431.921L100.251 472.327C88.3263 479.413 59.4393 471.776 41.6972 460.047Z" fill="#DF921C"/>
<path d="M55.1782 460.961C32.8325 450.417 21.7652 435.422 19.0247 429.242C19.4837 428.346 40.5862 418.8 69.7129 432.591C98.8395 446.383 101.743 471.622 100.388 472.059C99.0331 472.496 83.1104 474.14 55.1782 460.961Z" fill="#FFC921"/>
<ellipse cx="85.3202" cy="453.201" rx="4.0264" ry="2.68427" transform="rotate(63.5275 85.3202 453.201)" fill="#2C2728"/>
<ellipse cx="4.0264" cy="2.68427" rx="4.0264" ry="2.68427" transform="matrix(-0.986936 0.161114 0.161114 0.986936 46.4576 428.178)" fill="#2C2728"/>
<ellipse cx="125.301" cy="450.66" rx="15.5955" ry="20.7328" transform="rotate(11.9937 125.301 450.66)" fill="#292826"/>
<ellipse cx="15.5955" cy="20.7328" rx="15.5955" ry="20.7328" transform="matrix(-0.740075 -0.672525 -0.672525 0.740075 47.571 392.657)" fill="#292826"/>
</g>
<path d="M-3.65823 448.496L-9.82788 450.236C-11.5919 461.774 16.126 474.844 46.2023 490.253C68.8976 501.881 88.3208 505.423 98.2804 504.871L98.1716 500.668L-3.65823 448.496Z" fill="#F1F1F1"/>
<path d="M99.1048 504.162C100.336 506.175 102.736 510.32 102.491 510.798C102.185 511.395 111.944 526.197 111.564 534.297C111.184 542.397 111.618 574.664 112.062 575.269C112.506 575.874 111.887 577.818 112.775 579.028C113.664 580.237 116.344 582.364 115.12 584.753C113.896 587.142 107.238 592.779 104.077 593.798C100.915 594.818 94.7529 595.807 91.9418 591.728C89.1307 587.649 92.445 586.331 92.4598 584.83C92.4692 583.872 92.1758 582.606 92.0099 580.956C91.2174 581.43 90.3765 583.009 89.6116 584.502C88.8466 585.995 87.8844 592.288 86.3618 594.524C84.8392 596.76 81.5251 598.078 70.7082 599.323C59.8912 600.567 26.562 586.884 24.02 585.959C21.4781 585.033 -16.3086 566.805 -42.4048 550.041C-68.5009 533.278 -70.8015 523.051 -72.5563 518.382C-74.3112 513.713 -70.501 507.748 -68.5416 506.867C-66.974 506.162 -65.3834 502.578 -64.784 500.875C-65.3388 501.316 -65.6918 501.541 -65.7876 501.492C-66.6835 501.033 -68.4973 502.365 -69.7139 504.004C-70.9305 505.643 -77.1076 508.133 -80.9602 503.143C-84.8127 498.153 -82.7646 488.269 -81.8318 484.977C-80.8991 481.685 -76.8567 482.625 -75.8078 482.786C-74.759 482.946 -73.2511 482.21 -72.1875 480.87C-71.1239 479.53 -59.804 472.889 -48.7606 463.843C-37.7172 454.798 -17.2709 450.947 -16.069 450.809C-15.1075 450.698 -10.1568 449.817 -7.80164 449.39C-9.04772 454.029 11.8189 468.49 45.4027 486.828C72.2698 501.498 92.3987 504.496 99.1048 504.162Z" fill="#980808"/>
<path d="M98.5978 594.761C99.5534 595.251 106.125 592.334 109.291 590.815C109.534 591.567 109.833 593.731 109.086 596.365C108.154 599.657 103.776 602.315 101.532 601.543C99.7378 600.925 98.8283 596.764 98.5978 594.761Z" fill="#F1F1F1"/>
<path d="M7.27974 513.878C7.51834 513.786 7.77278 513.741 8.02852 513.747C8.28427 513.753 8.53632 513.81 8.77027 513.913C9.00423 514.017 9.21552 514.165 9.39207 514.35C9.56863 514.535 9.70699 514.753 9.79925 514.992L12.8039 522.762L9.16992 524.167L6.16532 516.397C6.07305 516.159 6.02868 515.904 6.03475 515.649C6.04082 515.393 6.0972 515.141 6.20069 514.907C6.30417 514.673 6.45273 514.462 6.63787 514.285C6.82302 514.108 7.04112 513.97 7.27974 513.878Z" fill="white"/>
<path d="M34.0948 536.937L33.1126 533.167L41.1739 531.067C41.6739 530.936 42.2051 531.01 42.6507 531.271C43.0964 531.533 43.4199 531.961 43.5501 532.461C43.6804 532.961 43.6067 533.492 43.3453 533.937C43.0838 534.383 42.6561 534.707 42.1561 534.837L34.0948 536.937Z" fill="white"/>
<path d="M34.7531 541.327C33.187 547.424 33.0752 551.806 31.1992 553.395C30.213 554.23 28.8492 554.655 27.3466 553.885C25.0043 552.685 26.4196 549.922 24.0771 548.722C21.7346 547.522 20.3197 550.285 17.9775 549.085C15.6352 547.884 17.0508 545.122 14.7088 543.922C12.3668 542.722 10.9514 545.485 8.60931 544.285C6.26721 543.085 7.68264 540.323 5.34067 539.123C2.99869 537.923 1.58365 540.685 -0.758068 539.486C-2.14847 538.773 -2.51494 537.552 -2.52854 536.35C-2.56164 533.463 2.79319 529.891 6.13429 526.033C9.82609 521.77 12.8363 515.647 14.8728 512.067C18.8 505.163 27.1602 502.203 34.2295 505.825C41.2988 509.447 43.5683 517.868 40.4711 525.182C38.8015 529.125 36.1866 535.745 34.7531 541.327Z" fill="white"/>
<path d="M22.4401 516.986C23.2236 517.388 24.1843 517.078 24.5857 516.295C24.9871 515.511 24.6774 514.55 23.8938 514.149C23.1103 513.747 22.1497 514.057 21.7482 514.841C21.3468 515.624 21.6565 516.585 22.4401 516.986Z" fill="#292A2E"/>
<path d="M32.169 521.971C32.9525 522.372 33.9131 522.063 34.3146 521.279C34.716 520.496 34.4063 519.535 33.6227 519.133C32.8392 518.732 31.8785 519.042 31.4771 519.825C31.0757 520.609 31.3854 521.569 32.169 521.971Z" fill="#292A2E"/>
<path d="M28.61 523.191C28.692 523.232 28.7636 523.292 28.8197 523.365C28.8758 523.438 28.915 523.522 28.9343 523.612C28.9536 523.702 28.9527 523.795 28.9315 523.885C28.9103 523.974 28.8694 524.058 28.8118 524.13C27.7789 525.396 26.0567 525.643 24.5433 524.868C23.03 524.092 22.2237 522.551 22.6486 520.972C22.6732 520.884 22.7172 520.801 22.7775 520.732C22.8378 520.662 22.9129 520.607 22.9972 520.57C23.0815 520.534 23.173 520.516 23.2649 520.519C23.3569 520.522 23.4471 520.545 23.5288 520.587L28.61 523.191Z" fill="white"/>
<path d="M24.4548 525.04C22.8243 524.205 22.0233 522.55 22.4612 520.922C22.4924 520.806 22.5492 520.698 22.6274 520.607C22.7056 520.516 22.8033 520.444 22.9132 520.396C23.0245 520.346 23.1455 520.322 23.2673 520.325C23.3891 520.329 23.5086 520.359 23.6169 520.415L28.6984 523.019C28.807 523.074 28.9017 523.153 28.9756 523.25C29.0495 523.347 29.1007 523.459 29.1254 523.578C29.1504 523.696 29.1488 523.817 29.1206 523.934C29.0924 524.051 29.0384 524.159 28.9625 524.253C27.8964 525.559 26.0848 525.875 24.4548 525.04ZM23.44 520.76C23.3831 520.731 23.3203 520.714 23.2563 520.713C23.1923 520.711 23.1288 520.724 23.0703 520.75C23.0133 520.775 22.9626 520.812 22.922 520.859C22.8813 520.907 22.8518 520.962 22.8356 521.022C22.4463 522.469 23.1679 523.945 24.6314 524.695C26.0948 525.445 27.7142 525.168 28.6611 524.007C28.7004 523.959 28.7284 523.902 28.7429 523.842C28.7575 523.781 28.7582 523.718 28.7452 523.657C28.7322 523.594 28.7053 523.535 28.6665 523.485C28.6278 523.434 28.578 523.392 28.5211 523.363L23.44 520.76Z" fill="#292A2E"/>
<path d="M417.396 431.275C384.373 422.682 368.379 442.535 364.51 453.536L375.088 522.701C441.537 534.157 449.316 496.536 451.933 489.569C454.551 482.603 458.673 442.018 417.396 431.275Z" fill="#E3C795"/>
<path d="M231.892 433.31C265.673 428.497 278.128 456.991 280.731 468.359L269.045 528.699C201.728 532.585 196.227 492.252 195.708 487.287C194.934 479.885 189.666 439.327 231.892 433.31Z" fill="#E3C795"/>
<g filter="url(#filter1_i_26_69)">
<path d="M413.739 444.113C385.811 437.803 372.078 453.169 368.703 461.641L377.082 514.608C433.332 522.829 440.249 493.902 442.528 488.536C444.808 483.17 448.65 452.001 413.739 444.113Z" fill="#E8B6B6"/>
</g>
<g filter="url(#filter2_i_26_69)">
<path d="M239.506 446.252C267.969 443.133 271.442 473.665 273.84 482.464L267.976 520.433C211.158 522.255 206.495 492.942 205.889 487.143C205.275 481.267 203.928 450.151 239.506 446.252Z" fill="#E8B6B6"/>
</g>
<path d="M315.302 648.243L288.822 651.012C288.13 644.391 294.75 643.699 292.922 642.217C291.094 640.735 277.334 637.155 273.949 620.777C271.24 607.676 284.791 601.797 291.906 600.496L296.871 599.977L300.158 631.422C309.427 630.453 314.116 642.232 315.302 648.243Z" fill="#E3C795"/>
<path d="M360.205 643.548L386.685 640.779C385.993 634.159 379.373 634.852 380.855 633.023C382.337 631.195 395.058 624.846 394.983 608.123C394.922 594.744 380.448 591.796 373.219 591.994L368.254 592.513L371.542 623.959C362.273 624.928 360.122 637.422 360.205 643.548Z" fill="#E3C795"/>
<path fill-rule="evenodd" clip-rule="evenodd" d="M295.588 547.022C294.163 572.825 293.304 626.566 301.264 635.104C309.224 643.641 317.27 647.373 320.299 648.171L337.776 646.344L355.253 644.517C358.051 643.109 365.151 637.793 371.173 627.794C377.195 617.795 365.238 565.394 358.507 540.444L327.048 543.733L327.048 543.733L295.588 547.022Z" fill="#E3C795"/>
<path fill-rule="evenodd" clip-rule="evenodd" d="M295.588 547.022C294.163 572.825 293.304 626.566 301.264 635.104C309.224 643.641 317.27 647.373 320.299 648.171L337.776 646.344L355.253 644.517C358.051 643.109 365.151 637.793 371.173 627.794C377.195 617.795 365.238 565.394 358.507 540.444L327.048 543.733L327.048 543.733L295.588 547.022Z" fill="url(#paint1_linear_26_69)" fill-opacity="0.2"/>
<g filter="url(#filter3_i_26_69)">
<path fill-rule="evenodd" clip-rule="evenodd" d="M357.11 543.936C363.23 567.295 374.137 616.345 368.807 625.667C363.478 634.989 357.165 639.927 354.674 641.231L339.085 642.861L339.085 642.861L321.039 644.748C318.333 643.988 311.134 640.462 303.992 632.444C296.849 624.426 297.375 574.181 298.53 550.061L329.048 546.87L329.048 546.87L357.11 543.936Z" fill="#FDE8D7"/>
</g>
<g filter="url(#filter4_i_26_69)">
<path d="M290.048 584.611C285.397 571.836 289.495 552.898 292.125 545.025L302.587 546.003C298.733 555.385 295.661 578.844 304.181 581.061C321.221 585.496 329.754 568.027 328.348 574.39C325.499 587.275 295.861 600.579 290.048 584.611Z" fill="#E3C795"/>
</g>
<path d="M300.653 551.263C300.026 551.328 293.546 551.477 290.385 551.544L290.923 549.111L301.273 549.614C301.327 550.136 301.28 551.197 300.653 551.263Z" fill="#D8B881"/>
<g filter="url(#filter5_i_26_69)">
<path d="M367.48 576.515C369.388 563.055 361.461 545.373 357.259 538.215L347.225 541.336C352.937 549.718 360.795 572.034 352.918 575.965C337.164 583.829 325.202 568.503 327.894 574.438C333.346 586.454 365.095 593.341 367.48 576.515Z" fill="#E3C795"/>
</g>
<path d="M350.016 546.101C350.016 546.101 357.014 544.842 360.121 544.253L358.308 542.066L348.987 543.833C349.042 544.355 350.016 546.101 350.016 546.101Z" fill="#D8B881"/>
<path d="M266.787 475.151C267.161 461.998 276.074 450.629 288.758 447.128L311.389 440.881C314.575 440.002 317.885 439.656 321.184 439.857L343.848 441.241C357.346 442.065 368.618 451.831 371.355 465.075L380.329 508.488C383.917 525.842 371.736 542.499 354.112 544.342L298.584 550.148C280.567 552.031 265.015 537.615 265.529 519.507L266.787 475.151Z" fill="#FDE8D7"/>
<path fill-rule="evenodd" clip-rule="evenodd" d="M288.055 447.172C275.353 450.634 266.401 461.983 265.992 475.141L264.646 518.474C264.46 524.465 266.033 530.055 268.874 534.787C268.83 533.389 268.961 531.953 269.29 530.503C270.468 525.311 274.043 520.987 278.922 518.853L312.675 504.093C318.201 501.677 324.327 500.985 330.253 502.108L367.64 509.193C373.604 510.323 378.486 514.557 380.468 520.257C381.423 516.155 381.525 511.776 380.601 507.354L371.748 464.959C368.981 451.708 357.67 441.96 344.156 441.179L320.896 439.835C317.662 439.648 314.418 439.988 311.292 440.839L288.055 447.172Z" fill="#E3C795"/>
<path d="M332.795 499.583C333.067 502.18 328.82 506.336 323.108 506.933C317.396 507.53 312.381 504.342 312.11 501.746C311.838 499.149 316.249 496.56 321.961 495.963C327.673 495.366 332.524 496.987 332.795 499.583Z" fill="#4E4949"/>
<path d="M334.121 515.287C334.754 521.345 330.356 526.77 324.298 527.403C318.24 528.037 312.815 523.639 312.182 517.581" stroke="#4E4949" stroke-width="2.20588" stroke-linecap="round"/>
<ellipse cx="292.147" cy="507.794" rx="6.30252" ry="3.93908" transform="rotate(-22.1431 292.147 507.794)" fill="#E39D9D"/>
<ellipse cx="6.30252" cy="3.93908" rx="6.30252" ry="3.93908" transform="matrix(-0.984179 -0.177177 -0.177177 0.984179 361.01 498.579)" fill="#E39D9D"/>
<circle cx="290.248" cy="486.305" r="11.3754" transform="rotate(-25.5178 290.248 486.305)" fill="white"/>
<path fill-rule="evenodd" clip-rule="evenodd" d="M294.937 494.15C299.048 492.188 300.789 487.265 298.827 483.155C296.865 479.044 291.942 477.303 287.832 479.265C286.658 479.825 285.677 480.627 284.921 481.583C285.988 481.577 287.015 482.175 287.505 483.202C288.182 484.62 287.582 486.317 286.164 486.994C285.137 487.484 283.962 487.304 283.136 486.627C283.123 487.846 283.381 489.086 283.942 490.26C285.904 494.371 290.827 496.112 294.937 494.15Z" fill="#393939"/>
<circle cx="347.923" cy="480.275" r="11.3754" transform="rotate(-25.5178 347.923 480.275)" fill="white"/>
<path fill-rule="evenodd" clip-rule="evenodd" d="M349.735 488.421C353.846 486.459 355.587 481.536 353.625 477.425C351.663 473.315 346.74 471.573 342.63 473.536C341.456 474.096 340.475 474.898 339.719 475.853C340.786 475.847 341.813 476.445 342.304 477.473C342.98 478.89 342.38 480.588 340.962 481.264C339.935 481.755 338.76 481.574 337.934 480.898C337.921 482.117 338.179 483.357 338.74 484.531C340.702 488.642 345.625 490.383 349.735 488.421Z" fill="#393939"/>
<path d="M275.94 475.238C277.919 471.926 283.864 466.489 291.814 471.238" stroke="#AE8D52" stroke-width="1.4469" stroke-linecap="round"/>
<path d="M362.57 466.181C359.949 463.35 353.007 459.259 346.212 465.55" stroke="#AE8D52" stroke-width="1.4469" stroke-linecap="round"/>
</g>
</g>
</g>
<defs>
<filter id="filter0_i_26_69" x="0" y="-4" width="390.5" height="620" filterUnits="userSpaceOnUse" color-interpolation-filters="sRGB">
<feFlood flood-opacity="0" result="BackgroundImageFix"/>
<feBlend mode="normal" in="SourceGraphic" in2="BackgroundImageFix" result="shape"/>
<feColorMatrix in="SourceAlpha" type="matrix" values="0 0 0 0 0 0 0 0 0 0 0 0 0 0 0 0 0 0 127 0" result="hardAlpha"/>
<feOffset dy="-4"/>
<feGaussianBlur stdDeviation="6"/>
<feComposite in2="hardAlpha" operator="arithmetic" k2="-1" k3="1"/>
<feColorMatrix type="matrix" values="0 0 0 0 0 0 0 0 0 0 0 0 0 0 0 0 0 0 0.2 0"/>
<feBlend mode="normal" in2="shape" result="effect1_innerShadow_26_69"/>
</filter>
<filter id="filter1_i_26_69" x="368.703" y="442.631" width="75.2224" height="73.4369" filterUnits="userSpaceOnUse" color-interpolation-filters="sRGB">
<feFlood flood-opacity="0" result="BackgroundImageFix"/>
<feBlend mode="normal" in="SourceGraphic" in2="BackgroundImageFix" result="shape"/>
<feColorMatrix in="SourceAlpha" type="matrix" values="0 0 0 0 0 0 0 0 0 0 0 0 0 0 0 0 0 0 127 0" result="hardAlpha"/>
<feOffset dy="6.65617"/>
<feComposite in2="hardAlpha" operator="arithmetic" k2="-1" k3="1"/>
<feColorMatrix type="matrix" values="0 0 0 0 0.890196 0 0 0 0 0.596078 0 0 0 0 0.596078 0 0 0 1 0"/>
<feBlend mode="normal" in2="shape" result="effect1_innerShadow_26_69"/>
</filter>
<filter id="filter2_i_26_69" x="205.69" y="446.03" width="68.1495" height="74.4847" filterUnits="userSpaceOnUse" color-interpolation-filters="sRGB">
<feFlood flood-opacity="0" result="BackgroundImageFix"/>
<feBlend mode="normal" in="SourceGraphic" in2="BackgroundImageFix" result="shape"/>
<feColorMatrix in="SourceAlpha" type="matrix" values="0 0 0 0 0 0 0 0 0 0 0 0 0 0 0 0 0 0 127 0" result="hardAlpha"/>
<feOffset dx="-3.32809" dy="6.65617"/>
<feComposite in2="hardAlpha" operator="arithmetic" k2="-1" k3="1"/>
<feColorMatrix type="matrix" values="0 0 0 0 0.891667 0 0 0 0 0.594444 0 0 0 0 0.594444 0 0 0 1 0"/>
<feBlend mode="normal" in2="shape" result="effect1_innerShadow_26_69"/>
</filter>
<filter id="filter3_i_26_69" x="296.971" y="543.773" width="73.2598" height="100.975" filterUnits="userSpaceOnUse" color-interpolation-filters="sRGB">
<feFlood flood-opacity="0" result="BackgroundImageFix"/>
<feBlend mode="normal" in="SourceGraphic" in2="BackgroundImageFix" result="shape"/>
<feColorMatrix in="SourceAlpha" type="matrix" values="0 0 0 0 0 0 0 0 0 0 0 0 0 0 0 0 0 0 127 0" result="hardAlpha"/>
<feOffset dy="1.57563"/>
<feComposite in2="hardAlpha" operator="arithmetic" k2="-1" k3="1"/>
<feColorMatrix type="matrix" values="0 0 0 0 0.970833 0 0 0 0 0.838941 0 0 0 0 0.73217 0 0 0 1 0"/>
<feBlend mode="normal" in2="shape" result="effect1_innerShadow_26_69"/>
</filter>
<filter id="filter4_i_26_69" x="287.934" y="545.025" width="40.563" height="46.8987" filterUnits="userSpaceOnUse" color-interpolation-filters="sRGB">
<feFlood flood-opacity="0" result="BackgroundImageFix"/>
<feBlend mode="normal" in="SourceGraphic" in2="BackgroundImageFix" result="shape"/>
<feColorMatrix in="SourceAlpha" type="matrix" values="0 0 0 0 0 0 0 0 0 0 0 0 0 0 0 0 0 0 127 0" result="hardAlpha"/>
<feOffset dy="1.57563"/>
<feComposite in2="hardAlpha" operator="arithmetic" k2="-1" k3="1"/>
<feColorMatrix type="matrix" values="0 0 0 0 0.845833 0 0 0 0 0.723115 0 0 0 0 0.503976 0 0 0 1 0"/>
<feBlend mode="normal" in2="shape" result="effect1_innerShadow_26_69"/>
</filter>
<filter id="filter5_i_26_69" x="327.514" y="538.215" width="40.257" height="48.3302" filterUnits="userSpaceOnUse" color-interpolation-filters="sRGB">
<feFlood flood-opacity="0" result="BackgroundImageFix"/>
<feBlend mode="normal" in="SourceGraphic" in2="BackgroundImageFix" result="shape"/>
<feColorMatrix in="SourceAlpha" type="matrix" values="0 0 0 0 0 0 0 0 0 0 0 0 0 0 0 0 0 0 127 0" result="hardAlpha"/>
<feOffset dy="1.57563"/>
<feComposite in2="hardAlpha" operator="arithmetic" k2="-1" k3="1"/>
<feColorMatrix type="matrix" values="0 0 0 0 0.845833 0 0 0 0 0.723115 0 0 0 0 0.503976 0 0 0 1 0"/>
<feBlend mode="normal" in2="shape" result="effect1_innerShadow_26_69"/>
</filter>
<linearGradient id="paint0_linear_26_69" x1="194" y1="-11.899" x2="194" y2="628.814" gradientUnits="userSpaceOnUse">
<stop stop-color="#3A9ECA"/>
<stop offset="0.9999" stop-color="#2B627A"/>
</linearGradient>
<linearGradient id="paint1_linear_26_69" x1="327.047" y1="543.733" x2="338.318" y2="646.338" gradientUnits="userSpaceOnUse">
<stop stop-color="#E3C795"/>
<stop offset="1" stop-color="#C2A674"/>
</linearGradient>
<clipPath id="clip0_26_69">
<rect width="390" height="844" fill="white"/>
</clipPath>
<clipPath id="clip1_26_69">
<rect width="164.265" height="125.825" fill="white" transform="translate(27.7778 334.158) rotate(27.128)"/>
</clipPath>
</defs>
</svg>
