<svg width="375" height="432" viewBox="0 0 390 432" fill="none" xmlns="http://www.w3.org/2000/svg">
<mask id="mask0_160_742" style="mask-type:alpha" maskUnits="userSpaceOnUse" x="-114" y="-6" width="655" height="280">
<path d="M-112.229 -4.68873C-122.513 57.2129 -64.2016 135.184 -28.3648 188.258C7.375 241.187 12.1335 257.709 73.154 269.858C125.765 280.332 173.801 244.717 226.971 244.524C279.788 244.332 332.958 287.012 381.925 268.735C431.411 250.263 455.784 195.268 482.497 149.146C510.088 101.508 543.185 52.451 539.859 -3.95111L-112.229 -4.68873Z" fill="#D9D9D9" stroke="black"/>
</mask>
<g mask="url(#mask0_160_742)">
<path d="M-1.47961 77.2005C0.4728 77.3524 4.57287 77.3828 5.35384 76.2888C6.33004 74.9213 6.33004 74.0096 8.28246 72.642C10.2349 71.2745 11.2111 68.9953 16.5802 67.6277C21.9494 66.2602 21.4613 64.4368 25.8542 64.8926C30.2471 65.3485 32.1995 63.0692 33.1757 62.1575C34.152 61.2458 37.0806 62.6133 38.5449 61.2458C40.0092 59.8783 40.4973 57.599 43.914 57.599C47.3308 57.599 45.3783 55.7756 47.8189 55.7756C50.2594 55.7756 50.2594 57.599 54.1642 57.599C58.069 57.599 63.4382 58.0549 64.9025 56.2315C66.3668 54.4081 68.3192 47.5704 75.1527 46.2028C79.3578 45.3613 79.6813 45.3828 79.6494 45.4177C79.6987 45.399 79.8084 45.3613 80.0337 45.2911C81.498 44.8353 84.9147 38.9093 86.3791 38.9093C87.8434 38.9093 93.2125 38.4534 94.6768 37.9976C96.1411 37.5417 96.1411 35.2625 99.5578 35.2625C102.975 35.2625 107.856 22.9546 115.665 20.2195C123.475 17.4845 122.987 12.926 124.939 12.4701C126.892 12.0143 130.308 8.36751 131.285 8.36751C132.261 8.36751 134.701 6.99997 136.654 6.99997C138.606 6.99997 140.07 9.27921 141.535 9.27921C142.999 9.27921 142.511 12.4701 145.928 12.4701C149.344 12.4701 150.321 10.6467 152.273 12.4701C154.225 14.2935 155.202 17.4845 157.642 17.4845C160.083 17.4845 163.011 18.852 164.964 18.852C166.916 18.852 171.797 19.7637 172.285 22.4988C172.773 25.2339 173.75 25.2339 175.214 25.2339C176.678 25.2339 182.047 25.2339 183.512 27.5131C184.976 29.7923 186.928 33.4391 189.369 33.4391C191.809 33.4391 196.202 36.1742 196.202 37.0859C196.202 37.9976 201.572 42.1002 202.548 42.1002C203.524 42.1002 206.453 41.6444 207.429 42.1002C208.405 42.5561 211.334 46.6587 212.798 46.6587C214.262 46.6587 216.703 47.1145 217.679 45.747C218.655 44.3794 223.048 39.3651 225.489 38.9093C227.929 38.4534 226.465 37.5417 228.417 37.0859C230.37 36.63 233.298 38.9093 234.763 38.4534C236.227 37.9976 241.108 32.9833 243.548 32.9833C245.989 32.9833 250.382 32.5274 251.358 30.2482C252.334 27.9689 255.751 28.4248 256.239 27.9689C256.727 27.5131 263.561 29.7923 265.025 33.4391C266.489 37.0859 276.739 44.3794 277.716 44.3794C278.692 44.3794 282.109 43.9236 283.573 43.0119C285.037 42.1002 291.871 41.6444 293.335 44.3794C294.799 47.1145 296.752 48.9379 297.24 48.9379C297.728 48.9379 302.609 51.673 304.561 51.2172C306.514 50.7613 313.835 62.6133 316.276 62.6133C318.716 62.6133 322.133 68.9952 323.109 68.5393C324.086 68.0835 327.502 68.5393 329.943 70.3627C332.383 72.1861 334.336 68.9952 336.288 68.5393C338.241 68.0835 344.098 67.1718 345.562 68.5393C347.026 69.9069 350.931 69.451 352.396 68.0835C353.86 66.716 355.812 65.8043 358.253 65.8043C360.693 65.8043 366.551 65.8043 368.015 67.6277C369.479 69.451 372.896 68.5393 373.384 67.6277C373.872 66.716 374.848 65.8043 376.313 65.8043C377.777 65.8043 379.729 61.2458 380.706 61.2458C381.682 61.2458 385.587 61.2458 386.563 60.7899C387.539 60.3341 391.444 56.2315 393.396 56.6873C395.349 57.1432 398.277 54.8639 398.277 54.4081C398.277 53.9522 401.694 51.673 403.646 53.0405C405.599 54.4081 405.111 52.5847 406.575 52.5847C408.039 52.5847 413.897 52.5847 414.873 55.7756C417.476 55.3198 422.975 54.5904 424.147 55.3198C425.611 56.2315 426.587 62.1575 429.028 62.1575C431.468 62.1575 433.421 66.716 436.837 66.2601C440.254 65.8043 443.671 67.1718 446.111 68.5393C448.552 69.9069 449.528 68.9952 450.992 68.9952C452.457 68.9952 454.409 70.8186 455.874 72.1861C457.045 73.2802 456.362 156.518 455.874 198H-1.47961V77.2005Z" fill="white"/>
<path d="M456.068 175.297C453.803 175.486 449.046 175.524 448.14 174.165C447.008 172.466 447.008 171.333 444.743 169.635C442.478 167.936 441.345 165.104 435.116 163.406C428.887 161.707 429.454 159.442 424.357 160.008C419.261 160.574 416.996 157.743 415.863 156.61C414.731 155.478 411.333 157.177 409.634 155.478C407.936 153.779 407.369 150.948 403.406 150.948C399.442 150.948 401.707 148.683 398.875 148.683C396.044 148.683 396.044 150.948 391.514 150.948C386.984 150.948 380.755 151.514 379.056 149.249C377.357 146.984 375.092 138.49 367.165 136.791C362.286 135.746 361.911 135.773 361.948 135.816C361.891 135.793 361.763 135.746 361.502 135.659C359.803 135.092 355.839 127.731 354.141 127.731C352.442 127.731 346.213 127.165 344.514 126.598C342.815 126.032 342.815 123.201 338.852 123.201C334.888 123.201 329.225 107.912 320.165 104.514C311.105 101.117 311.671 95.4539 309.406 94.8877C307.141 94.3214 303.177 89.7913 302.044 89.7913C300.912 89.7913 298.081 88.0925 295.815 88.0925C293.55 88.0925 291.852 90.9238 290.153 90.9238C288.454 90.9238 289.02 94.8877 285.056 94.8877C281.093 94.8877 279.96 92.6226 277.695 94.8877C275.43 97.1527 274.297 101.117 271.466 101.117C268.635 101.117 265.237 102.815 262.972 102.815C260.707 102.815 255.044 103.948 254.478 107.345C253.912 110.743 252.779 110.743 251.081 110.743C249.382 110.743 243.153 110.743 241.454 113.574C239.755 116.406 237.49 120.936 234.659 120.936C231.828 120.936 226.731 124.333 226.731 125.466C226.731 126.598 220.502 131.695 219.37 131.695C218.237 131.695 214.84 131.129 213.707 131.695C212.575 132.261 209.177 137.357 207.478 137.357C205.78 137.357 202.948 137.924 201.816 136.225C200.683 134.526 195.587 128.297 192.755 127.731C189.924 127.165 191.623 126.032 189.358 125.466C187.093 124.9 183.695 127.731 181.996 127.165C180.298 126.598 174.635 120.37 171.804 120.37C168.972 120.37 163.876 119.803 162.743 116.972C161.611 114.141 157.647 114.707 157.081 114.141C156.515 113.574 148.587 116.406 146.888 120.936C145.189 125.466 133.298 134.526 132.165 134.526C131.033 134.526 127.069 133.96 125.37 132.827C123.671 131.695 115.744 131.129 114.045 134.526C112.346 137.924 110.081 140.189 109.515 140.189C108.948 140.189 103.286 143.586 101.021 143.02C98.7556 142.454 90.2617 157.177 87.4304 157.177C84.5991 157.177 80.6352 165.104 79.5027 164.538C78.3702 163.972 74.4063 164.538 71.575 166.803C68.7437 169.068 66.4786 165.104 64.2136 164.538C61.9485 163.972 55.1534 162.839 53.4546 164.538C51.7558 166.237 47.2256 165.671 45.5269 163.972C43.8281 162.273 41.563 161.141 38.7317 161.141C35.9004 161.141 29.1052 161.141 27.4064 163.406C25.7076 165.671 21.7438 164.538 21.1775 163.406C20.6113 162.273 19.4787 161.141 17.7799 161.141C16.0811 161.141 13.8161 155.478 12.6836 155.478C11.551 155.478 7.02094 155.478 5.8884 154.912C4.75586 154.345 0.225769 149.249 -2.03931 149.815C-4.30435 150.382 -7.70193 147.55 -7.70193 146.984C-7.70193 146.418 -11.6658 143.586 -13.9308 145.285C-16.1959 146.984 -15.6296 144.719 -17.3284 144.719C-19.0272 144.719 -25.8224 144.719 -26.9549 148.683C-29.975 148.116 -36.3549 147.21 -37.7139 148.116C-39.4127 149.249 -40.5452 156.61 -43.3766 156.61C-46.2079 156.61 -48.4729 162.273 -52.4368 161.707C-56.4006 161.141 -60.3644 162.839 -63.1958 164.538C-66.0271 166.237 -67.1596 165.104 -68.8584 165.104C-70.5572 165.104 -72.8223 167.369 -74.5211 169.068C-75.8801 170.427 -75.0873 273.827 -74.5211 325.357H456.068V175.297Z" fill="#DCE5EE"/>
<path d="M-178.48 228.975C-175.779 229.2 -170.108 229.245 -169.027 227.624C-167.677 225.599 -167.677 224.249 -164.976 222.223C-162.276 220.198 -160.925 216.822 -153.499 214.796C-146.072 212.771 -146.747 210.07 -140.671 210.745C-134.594 211.421 -131.894 208.045 -130.543 206.694C-129.193 205.344 -125.142 207.37 -123.116 205.344C-121.091 203.319 -120.416 199.943 -115.69 199.943C-110.964 199.943 -113.664 197.242 -110.288 197.242C-106.913 197.242 -106.913 199.943 -101.511 199.943C-96.1101 199.943 -88.6833 200.618 -86.6578 197.917C-84.6323 195.217 -81.9317 185.089 -72.4794 183.064C-66.6626 181.817 -66.2152 181.849 -66.2595 181.901C-66.1913 181.873 -66.0395 181.817 -65.7278 181.713C-63.7024 181.038 -58.9762 172.261 -56.9507 172.261C-54.9253 172.261 -47.4985 171.586 -45.473 170.911C-43.4475 170.236 -43.4475 166.86 -38.7214 166.86C-33.9953 166.86 -27.2437 148.631 -16.4411 144.58C-5.63853 140.529 -6.31369 133.777 -3.61305 133.102C-0.912415 132.427 3.81371 127.025 5.16403 127.025C6.51436 127.025 9.89017 125 12.5908 125C15.2914 125 17.3169 128.376 19.3424 128.376C21.3679 128.376 20.6927 133.102 25.4189 133.102C30.145 133.102 31.4953 130.401 34.196 133.102C36.8966 135.803 38.2469 140.529 41.6227 140.529C44.9985 140.529 49.0495 142.554 51.7501 142.554C54.4508 142.554 61.2024 143.904 61.8775 147.955C62.5527 152.006 63.903 152.006 65.9285 152.006C67.954 152.006 75.3808 152.006 77.4062 155.382C79.4317 158.758 82.1324 164.159 85.5081 164.159C88.8839 164.159 94.9604 168.21 94.9604 169.561C94.9604 170.911 102.387 176.987 103.737 176.987C105.088 176.987 109.139 176.312 110.489 176.987C111.839 177.663 115.89 183.739 117.916 183.739C119.941 183.739 123.317 184.414 124.667 182.389C126.018 180.363 132.094 172.936 135.47 172.261C138.846 171.586 136.82 170.236 139.521 169.561C142.222 168.885 146.273 172.261 148.298 171.586C150.324 170.911 157.075 163.484 160.451 163.484C163.827 163.484 169.903 162.809 171.254 159.433C172.604 156.057 177.33 156.733 178.005 156.057C178.68 155.382 188.133 158.758 190.158 164.159C192.184 169.561 206.362 180.363 207.712 180.363C209.063 180.363 213.789 179.688 215.814 178.338C217.84 176.987 227.292 176.312 229.317 180.363C231.343 184.414 234.044 187.115 234.719 187.115C235.394 187.115 242.145 191.166 244.846 190.491C247.547 189.815 257.674 207.37 261.05 207.37C264.426 207.37 269.152 216.822 270.502 216.147C271.853 215.472 276.579 216.147 279.954 218.847C283.33 221.548 286.031 216.822 288.732 216.147C291.432 215.472 299.534 214.121 301.56 216.147C303.585 218.172 308.986 217.497 311.012 215.472C313.037 213.446 315.738 212.096 319.114 212.096C322.49 212.096 330.591 212.096 332.617 214.796C334.642 217.497 339.369 216.147 340.044 214.796C340.719 213.446 342.069 212.096 344.095 212.096C346.12 212.096 348.821 205.344 350.171 205.344C351.521 205.344 356.923 205.344 358.273 204.669C359.623 203.994 365.025 197.917 367.725 198.592C370.426 199.268 374.477 195.892 374.477 195.217C374.477 194.542 379.203 191.166 381.904 193.191C384.604 195.217 383.929 192.516 385.955 192.516C387.98 192.516 396.082 192.516 397.432 197.242C401.033 196.567 408.64 195.487 410.26 196.567C412.286 197.917 413.636 206.694 417.012 206.694C420.388 206.694 423.089 213.446 427.815 212.771C432.541 212.096 437.267 214.121 440.643 216.147C444.018 218.172 445.369 216.822 447.394 216.822C449.42 216.822 452.12 219.522 454.146 221.548C455.766 223.168 454.821 346.453 454.146 407.892H-178.48V228.975Z" fill="#C4D2E0"/>
<path d="M165.832 267.177C165.501 266.846 165.694 264.971 165.832 264.075C167.693 261.386 154.663 259.111 153.836 262.213C153.009 265.315 148.458 269.245 144.322 271.313C140.185 273.382 138.738 276.484 139.358 278.552C139.979 280.62 142.461 281.034 143.081 281.448C143.701 281.861 159.006 282.689 163.97 281.448C168.934 280.207 170.175 276.484 170.175 274.623C170.175 272.761 166.245 267.591 165.832 267.177Z" fill="#382E35"/>
<path d="M211.815 267.177C212.146 266.846 211.953 264.971 211.815 264.075C209.953 261.386 222.983 259.111 223.811 262.213C224.638 265.315 229.188 269.245 233.325 271.313C237.461 273.382 238.909 276.484 238.288 278.552C237.668 280.62 235.186 281.034 234.566 281.448C233.945 281.861 218.64 282.689 213.676 281.448C208.713 280.207 207.472 276.484 207.472 274.623C207.472 272.761 211.401 267.591 211.815 267.177Z" fill="#382E35"/>
<path d="M164.454 265.475C143.607 261.339 136.74 242.38 135.913 233.418H241.6C238.299 258.38 219.564 263.999 217.417 264.643L217.401 264.648C215.333 265.269 190.514 270.646 164.454 265.475Z" fill="#F1F1F1"/>
<g clip-path="url(#clip0_160_742)">
<path d="M239.521 145.517C241.589 176.127 217.384 181.091 189.056 181.091C160.728 181.091 135.902 176.541 138.591 145.517C140.957 118.217 160.728 103.532 189.056 103.532C217.384 103.532 237.83 120.492 239.521 145.517Z" fill="#F1F1F1"/>
<path fill-rule="evenodd" clip-rule="evenodd" d="M144.183 125.662C146.527 122.077 152.249 114.799 158.04 114.302C165.279 113.682 177.275 119.266 177.275 133.744V150.083H188.855V150.091H200.437V133.752C200.437 119.275 212.433 113.69 219.672 114.311C225.463 114.807 231.392 122.284 233.736 125.869C228.957 115.575 219.312 108.98 209.538 105.824C201.716 103.299 193.944 103.05 188.857 103.142V103.134C183.77 103.042 175.997 103.29 168.175 105.816C158.4 108.971 148.962 115.368 144.183 125.662Z" fill="#3C3135"/>
<path d="M181.412 168.682C170.988 167.523 163.832 161.994 161.557 159.374L216.986 158.961C212.436 166.2 194.442 170.129 181.412 168.682Z" fill="#DF921C"/>
<path d="M189.066 165.394C173.844 165.89 163.558 160.775 160.318 158.155C160.318 157.535 169.211 146.366 189.066 145.746C208.921 145.125 217.608 158.155 216.987 158.776C216.367 159.396 208.094 164.773 189.066 165.394Z" fill="#FFC921"/>
<ellipse cx="203.419" cy="152.665" rx="2.48189" ry="1.65459" transform="rotate(36.3995 203.419 152.665)" fill="#2C2728"/>
<ellipse cx="2.48189" cy="1.65459" rx="2.48189" ry="1.65459" transform="matrix(-0.804899 0.593412 0.593412 0.804899 175.067 149.861)" fill="#2C2728"/>
<ellipse cx="224.638" cy="140.034" rx="9.61312" ry="12.7798" transform="rotate(-15.1343 224.638 140.034)" fill="#292826"/>
<ellipse cx="9.61312" cy="12.7798" rx="9.61312" ry="12.7798" transform="matrix(-0.965317 -0.261082 -0.261082 0.965317 165.694 130.061)" fill="#292826"/>
</g>
<path d="M153.285 175.093L150.39 177.782C152.665 184.607 171.544 183.987 192.375 183.987C208.093 183.987 219.745 180.471 225.053 177.368L223.812 175.093H153.285Z" fill="#F1F1F1"/>
<path d="M225.306 176.748C226.547 177.506 229.029 179.106 229.029 179.437C229.029 179.85 238.543 185.228 240.611 189.778C242.679 194.328 251.987 211.908 252.4 212.115C252.814 212.322 253.021 213.563 253.848 213.976C254.675 214.39 256.743 214.804 256.743 216.458C256.743 218.113 254.675 223.077 253.227 224.524C251.78 225.972 248.677 228.247 245.989 226.799C243.3 225.352 244.748 223.697 244.334 222.87C244.07 222.342 243.553 221.729 242.998 220.871C242.697 221.354 242.679 222.456 242.679 223.49C242.679 224.524 243.92 228.247 243.713 229.902C243.507 231.556 242.059 233.211 236.475 236.934C230.89 240.657 208.76 242.518 207.106 242.725C205.451 242.932 179.598 243.552 160.57 241.691C141.542 239.829 137.406 234.866 135.131 232.797C132.856 230.729 133.269 226.386 134.097 225.352C134.758 224.524 134.624 222.111 134.474 221.008C134.293 221.406 134.163 221.629 134.097 221.629C133.476 221.629 132.856 222.87 132.649 224.111C132.442 225.352 129.753 228.454 126.237 226.799C122.721 225.145 121.067 219.147 120.653 217.079C120.24 215.01 122.721 214.39 123.342 214.183C123.962 213.976 124.583 213.149 124.79 212.115C124.997 211.081 129.34 204.256 132.856 196.189C136.372 188.123 146.506 180.264 147.127 179.85C147.623 179.519 150.091 177.644 151.263 176.748C151.884 179.644 167.395 181.712 190.973 182.332C209.836 182.829 221.721 178.816 225.306 176.748Z" fill="#980808"/>
<path d="M126.876 226.592C126.214 226.592 123.429 223.145 122.119 221.422C121.775 221.767 121.002 222.87 120.672 224.524C120.258 226.592 121.912 229.281 123.36 229.488C124.518 229.653 126.187 227.627 126.876 226.592Z" fill="#F1F1F1"/>
<path d="M250.493 226.592C251.155 226.592 253.94 223.145 255.25 221.422C255.595 221.767 256.367 222.87 256.698 224.524C257.111 226.592 255.457 229.281 254.009 229.488C252.851 229.653 251.182 227.627 250.493 226.592Z" fill="#F1F1F1"/>
<path d="M177.659 207.887C177.764 207.769 177.891 207.673 178.033 207.605C178.175 207.536 178.329 207.496 178.486 207.487C178.644 207.478 178.801 207.5 178.95 207.552C179.099 207.604 179.236 207.685 179.354 207.79L183.186 211.208L181.588 213L177.756 209.582C177.638 209.477 177.542 209.35 177.473 209.208C177.405 209.066 177.365 208.912 177.356 208.755C177.347 208.597 177.369 208.44 177.421 208.291C177.473 208.142 177.554 208.005 177.659 207.887Z" fill="white"/>
<path d="M198.854 213L197.255 211.208L201.087 207.79C201.325 207.578 201.637 207.469 201.955 207.487C202.273 207.505 202.571 207.649 202.783 207.887C202.995 208.124 203.104 208.437 203.085 208.754C203.067 209.072 202.924 209.37 202.686 209.582L198.854 213Z" fill="white"/>
<path d="M200.448 215.223C201.303 219.009 202.473 221.444 201.89 222.843C201.584 223.578 200.955 224.194 199.915 224.194C198.292 224.194 198.292 222.281 196.67 222.281C195.047 222.281 195.048 224.194 193.425 224.194C191.803 224.194 191.803 222.281 190.181 222.281C188.559 222.281 188.559 224.194 186.937 224.194C185.315 224.194 185.315 222.281 183.693 222.281C182.071 222.281 182.071 224.194 180.449 224.194C179.486 224.194 178.942 223.627 178.597 222.972C177.767 221.397 179.701 217.933 180.449 214.877C181.276 211.501 181.207 207.296 181.318 204.759C181.532 199.868 185.286 195.895 190.182 195.895C195.079 195.895 198.691 199.877 199.047 204.759C199.239 207.392 199.666 211.758 200.448 215.223Z" fill="white"/>
<path d="M186.848 205.331C187.391 205.331 187.831 204.891 187.831 204.348C187.831 203.806 187.391 203.366 186.848 203.366C186.305 203.366 185.865 203.806 185.865 204.348C185.865 204.891 186.305 205.331 186.848 205.331Z" fill="#292A2E"/>
<path d="M193.584 205.331C194.127 205.331 194.567 204.891 194.567 204.348C194.567 203.806 194.127 203.366 193.584 203.366C193.041 203.366 192.602 203.806 192.602 204.348C192.602 204.891 193.041 205.331 193.584 205.331Z" fill="#292A2E"/>
<path d="M191.982 207.001C192.039 207.001 192.095 207.013 192.146 207.037C192.197 207.062 192.243 207.097 192.278 207.141C192.314 207.185 192.34 207.236 192.354 207.291C192.367 207.346 192.368 207.404 192.357 207.459C192.146 208.445 191.271 209.064 190.222 209.064C189.174 209.064 188.299 208.445 188.088 207.459C188.077 207.404 188.078 207.346 188.091 207.291C188.105 207.236 188.13 207.185 188.166 207.141C188.202 207.097 188.248 207.062 188.299 207.037C188.35 207.013 188.406 207.001 188.463 207.001H191.982Z" fill="white"/>
<path d="M190.222 209.183C189.092 209.183 188.188 208.501 187.97 207.484C187.955 207.412 187.956 207.337 187.973 207.265C187.991 207.193 188.024 207.126 188.071 207.069C188.118 207.01 188.177 206.963 188.245 206.931C188.313 206.898 188.387 206.882 188.462 206.882H191.982C192.057 206.882 192.131 206.898 192.199 206.931C192.266 206.963 192.326 207.01 192.373 207.069C192.42 207.126 192.453 207.193 192.47 207.265C192.488 207.337 192.489 207.412 192.473 207.484C192.256 208.501 191.351 209.183 190.222 209.183ZM188.462 207.121C188.422 207.121 188.384 207.129 188.348 207.146C188.312 207.163 188.281 207.188 188.256 207.219C188.232 207.249 188.215 207.283 188.206 207.321C188.197 207.358 188.196 207.397 188.204 207.434C188.397 208.338 189.208 208.944 190.222 208.944C191.235 208.944 192.046 208.338 192.239 207.434C192.247 207.397 192.246 207.358 192.237 207.321C192.228 207.283 192.211 207.249 192.187 207.219C192.162 207.188 192.131 207.163 192.095 207.146C192.059 207.129 192.02 207.121 191.981 207.121H188.462Z" fill="#292A2E"/>
</g>
<defs>
<clipPath id="clip0_160_742">
<rect width="101.254" height="77.559" fill="white" transform="translate(138.392 103.532)"/>
</clipPath>
</defs>
</svg>
