<svg width="293" height="268" viewBox="0 0 293 268" fill="none" xmlns="http://www.w3.org/2000/svg">
<path d="M54.364 254.35C54.364 237.549 86.6595 235.211 106.396 236.407C109.984 236.585 108.19 243.585 106.396 243.585H106.396C104.601 243.585 61.5408 243.585 61.5408 254.35C61.5408 265.115 111.778 264.604 111.778 266.909C111.778 267.564 54.364 269.736 54.364 254.35Z" fill="#8E4747"/>
<path d="M258.415 31.3711C223.966 18.4529 204.589 37.9498 199.207 49.313L202.795 124.669C272.769 144.405 285.328 104.933 288.916 97.7563C292.505 90.5795 301.476 47.5188 258.415 31.3711Z" fill="#E3C795"/>
<path d="M59.2585 12.7541C96.024 11.3801 106.185 43.3332 107.702 55.8149L88.4053 119.212C15.7803 115.832 14.4036 71.9626 14.4036 66.58C14.4036 58.5561 13.3018 14.4716 59.2585 12.7541Z" fill="#E3C795"/>
<g filter="url(#filter0_i_1_306)">
<path d="M253.055 44.7279C223.812 34.8297 207.364 49.7686 202.794 58.4753L205.841 116.214C265.239 131.337 275.901 101.092 278.947 95.5933C281.993 90.0943 289.608 57.1005 253.055 44.7279Z" fill="#E8B6B6"/>
</g>
<g filter="url(#filter1_i_1_306)">
<path d="M65.9727 27.4866C96.8446 27.3333 97.1463 60.4641 98.7309 70.1683L88.1858 110.228C27.0517 105.811 25.338 73.8539 25.338 67.5676C25.338 61.1973 27.3829 27.6781 65.9727 27.4866Z" fill="#E8B6B6"/>
</g>
<path d="M124.606 252.593H95.8992C95.8992 245.417 103.076 245.417 101.282 243.622C99.4877 241.828 85.134 236.446 83.3398 218.504C81.9045 204.15 97.0953 199.366 104.87 198.768H110.253V232.857C120.3 232.857 124.008 246.015 124.606 252.593Z" fill="#E3C795"/>
<rect x="100.233" y="246.336" width="5.09661" height="5.09661" rx="1.69887" fill="#FDE8D7"/>
<rect x="107.029" y="246.336" width="5.09661" height="5.09661" rx="1.69887" fill="#FDE8D7"/>
<rect x="115.523" y="246.336" width="5.09661" height="5.09661" rx="1.69887" fill="#FDE8D7"/>
<path d="M173.285 252.593H201.992C201.992 245.417 194.816 245.417 196.61 243.622C198.404 241.828 212.758 236.446 214.552 218.504C215.987 204.15 200.796 199.366 193.021 198.768H187.639V232.857C177.591 232.857 173.883 246.015 173.285 252.593Z" fill="#E3C795"/>
<rect width="5.09661" height="5.09661" rx="1.69887" transform="matrix(-1 0 0 1 197.658 246.336)" fill="#FDE8D7"/>
<rect width="5.09661" height="5.09661" rx="1.69887" transform="matrix(-1 0 0 1 190.863 246.336)" fill="#FDE8D7"/>
<rect width="5.09661" height="5.09661" rx="1.69887" transform="matrix(-1 0 0 1 182.369 246.336)" fill="#FDE8D7"/>
<path fill-rule="evenodd" clip-rule="evenodd" d="M114.815 141.837C110.394 169.348 103.446 226.882 111.025 236.93C118.604 246.977 126.815 251.881 129.972 253.077H148.919H148.92H167.866C171.024 251.881 179.235 246.977 186.814 236.93C194.393 226.882 187.445 169.348 183.024 141.837H148.92H148.919H114.815Z" fill="#E3C795"/>
<path fill-rule="evenodd" clip-rule="evenodd" d="M114.815 141.837C110.394 169.348 103.446 226.882 111.025 236.93C118.604 246.977 126.815 251.881 129.972 253.077H148.919H148.92H167.866C171.024 251.881 179.235 246.977 186.814 236.93C194.393 226.882 187.445 169.348 183.024 141.837H148.92H148.919H114.815Z" fill="url(#paint0_linear_1_306)" fill-opacity="0.2"/>
<g filter="url(#filter2_i_1_306)">
<path fill-rule="evenodd" clip-rule="evenodd" d="M181.135 145.426C185.078 171.162 191.275 224.984 184.515 234.383C177.754 243.782 170.431 248.37 167.614 249.489H150.713V249.489H131.15C128.333 248.37 121.009 243.782 114.249 234.383C107.489 224.984 113.686 171.162 117.629 145.426H150.713V145.426H181.135Z" fill="#FDE8D7"/>
</g>
<g filter="url(#filter3_i_1_306)">
<path d="M104.659 181.525C101.104 167.304 107.622 147.455 111.325 139.307L122.435 141.529C117.25 151.158 111.325 175.97 120.213 179.303C137.989 185.969 149.098 168.193 146.876 174.859C142.377 188.357 109.103 199.301 104.659 181.525Z" fill="#E3C795"/>
</g>
<path d="M119.771 146.952C119.091 146.952 112.126 146.386 108.728 146.103L109.577 143.554L120.62 145.253C120.62 145.82 120.45 146.952 119.771 146.952Z" fill="#D8B881"/>
<g filter="url(#filter4_i_1_306)">
<path d="M188.602 181.525C192.157 167.304 185.64 147.455 181.936 139.307L170.827 141.529C176.011 151.158 181.936 175.97 173.049 179.303C155.273 185.969 144.163 168.193 146.385 174.859C150.884 188.357 184.158 199.301 188.602 181.525Z" fill="#E3C795"/>
</g>
<path d="M173.285 146.952C173.285 146.952 180.93 146.386 184.328 146.103L182.629 143.554L172.436 144.404C172.436 144.97 173.285 146.952 173.285 146.952Z" fill="#D8B881"/>
<path d="M91.988 61.536C93.8631 47.473 104.697 36.2806 118.691 33.9482L143.66 29.7867C147.175 29.2009 150.763 29.2009 154.278 29.7867L178.427 33.8115C192.81 36.2086 203.802 47.9456 205.253 62.4541L210.009 110.016C211.91 129.027 196.981 145.525 177.874 145.525H117.677C98.145 145.525 83.0833 128.321 85.6647 108.961L91.988 61.536Z" fill="#FDE8D7"/>
<path fill-rule="evenodd" clip-rule="evenodd" d="M117.931 33.9168C103.923 36.2047 93.0501 47.3713 91.1364 61.4359L84.8342 107.754C83.963 114.157 85.0233 120.328 87.5391 125.722C87.6483 124.217 87.9507 122.692 88.4658 121.174C90.3113 115.738 94.6296 111.502 100.1 109.761L137.952 97.7176C144.148 95.746 150.795 95.6908 157.024 97.5593L196.322 109.349C202.591 111.23 207.352 116.317 208.838 122.651C210.323 118.36 210.922 113.676 210.428 108.83L205.687 62.3746C204.206 47.8544 193.169 36.1327 178.764 33.78L153.972 29.7309C150.525 29.1678 147.008 29.1678 143.561 29.7309L117.931 33.9168Z" fill="#E3C795"/>
<path d="M160.034 95.1366C160.034 97.9514 155.014 101.932 148.821 101.932C142.629 101.932 137.609 97.9514 137.609 95.1366C137.609 92.3219 142.629 90.04 148.821 90.04C155.014 90.04 160.034 92.3219 160.034 95.1366Z" fill="#4E4949"/>
<rect x="145" y="123" width="3" height="5" rx="1.5" fill="white"/>
<rect x="148" y="123" width="3" height="5" rx="1.5" fill="white"/>
<path d="M159.694 112.125C159.694 118.693 154.37 124.018 147.802 124.018C141.234 124.018 135.91 118.693 135.91 112.125" stroke="#4E4949" stroke-width="2.37842" stroke-linecap="round"/>
<ellipse cx="115.523" cy="99.3839" rx="6.79547" ry="4.24717" transform="rotate(-16.1742 115.523 99.3839)" fill="#E39D9D"/>
<ellipse cx="6.79547" cy="4.24717" rx="6.79547" ry="4.24717" transform="matrix(-0.960419 -0.278559 -0.278559 0.960419 190.403 97.2236)" fill="#E39D9D"/>
<circle cx="115.895" cy="76.1274" r="12.2651" transform="rotate(-19.549 115.895 76.1274)" fill="white"/>
<path fill-rule="evenodd" clip-rule="evenodd" d="M120.045 85.0662C124.673 83.4229 127.093 78.3391 125.449 73.7112C123.806 69.0833 118.722 66.6638 114.094 68.307C112.772 68.7764 111.631 69.5264 110.712 70.4663C111.858 70.5793 112.892 71.3359 113.303 72.4926C113.869 74.0885 113.035 75.8415 111.439 76.4082C110.283 76.8189 109.043 76.4936 108.233 75.6757C108.083 76.9812 108.221 78.3402 108.69 79.6621C110.333 84.29 115.417 86.7095 120.045 85.0662Z" fill="#393939"/>
<circle cx="178.421" cy="76.1274" r="12.2651" transform="rotate(-19.549 178.421 76.1274)" fill="white"/>
<path fill-rule="evenodd" clip-rule="evenodd" d="M179.451 85.0662C184.079 83.4229 186.499 78.3391 184.855 73.7112C183.212 69.0833 178.128 66.6638 173.5 68.307C172.178 68.7764 171.037 69.5264 170.118 70.4663C171.264 70.5793 172.298 71.3359 172.709 72.4926C173.276 74.0885 172.441 75.8415 170.845 76.4082C169.689 76.8189 168.449 76.4935 167.639 75.6756C167.489 76.9811 167.627 78.3402 168.096 79.6621C169.739 84.29 174.823 86.7095 179.451 85.0662Z" fill="#393939"/>
<path d="M101.793 62.6556C104.287 59.3254 111.272 54.1611 119.264 60.1452" stroke="#AE8D52" stroke-width="1.56007" stroke-linecap="round"/>
<path d="M195.708 62.6556C193.215 59.3254 186.23 54.1611 178.237 60.1452" stroke="#AE8D52" stroke-width="1.56007" stroke-linecap="round"/>
<defs>
<filter id="filter0_i_1_306" x="202.794" y="41.4612" width="78.9446" height="78.9446" filterUnits="userSpaceOnUse" color-interpolation-filters="sRGB">
<feFlood flood-opacity="0" result="BackgroundImageFix"/>
<feBlend mode="normal" in="SourceGraphic" in2="BackgroundImageFix" result="shape"/>
<feColorMatrix in="SourceAlpha" type="matrix" values="0 0 0 0 0 0 0 0 0 0 0 0 0 0 0 0 0 0 127 0" result="hardAlpha"/>
<feOffset dy="7.17678"/>
<feComposite in2="hardAlpha" operator="arithmetic" k2="-1" k3="1"/>
<feColorMatrix type="matrix" values="0 0 0 0 0.890196 0 0 0 0 0.596078 0 0 0 0 0.596078 0 0 0 1 0"/>
<feBlend mode="normal" in2="shape" result="effect1_innerShadow_1_306"/>
</filter>
<filter id="filter1_i_1_306" x="25.338" y="27.4861" width="73.3928" height="82.7417" filterUnits="userSpaceOnUse" color-interpolation-filters="sRGB">
<feFlood flood-opacity="0" result="BackgroundImageFix"/>
<feBlend mode="normal" in="SourceGraphic" in2="BackgroundImageFix" result="shape"/>
<feColorMatrix in="SourceAlpha" type="matrix" values="0 0 0 0 0 0 0 0 0 0 0 0 0 0 0 0 0 0 127 0" result="hardAlpha"/>
<feOffset dx="-3.58839" dy="7.17678"/>
<feComposite in2="hardAlpha" operator="arithmetic" k2="-1" k3="1"/>
<feColorMatrix type="matrix" values="0 0 0 0 0.891667 0 0 0 0 0.594444 0 0 0 0 0.594444 0 0 0 1 0"/>
<feBlend mode="normal" in2="shape" result="effect1_innerShadow_1_306"/>
</filter>
<filter id="filter2_i_1_306" x="111.241" y="145.426" width="76.2819" height="104.063" filterUnits="userSpaceOnUse" color-interpolation-filters="sRGB">
<feFlood flood-opacity="0" result="BackgroundImageFix"/>
<feBlend mode="normal" in="SourceGraphic" in2="BackgroundImageFix" result="shape"/>
<feColorMatrix in="SourceAlpha" type="matrix" values="0 0 0 0 0 0 0 0 0 0 0 0 0 0 0 0 0 0 127 0" result="hardAlpha"/>
<feOffset dy="1.69887"/>
<feComposite in2="hardAlpha" operator="arithmetic" k2="-1" k3="1"/>
<feColorMatrix type="matrix" values="0 0 0 0 0.970833 0 0 0 0 0.838941 0 0 0 0 0.73217 0 0 0 1 0"/>
<feBlend mode="normal" in2="shape" result="effect1_innerShadow_1_306"/>
</filter>
<filter id="filter3_i_1_306" x="103.631" y="139.307" width="43.5269" height="51.4795" filterUnits="userSpaceOnUse" color-interpolation-filters="sRGB">
<feFlood flood-opacity="0" result="BackgroundImageFix"/>
<feBlend mode="normal" in="SourceGraphic" in2="BackgroundImageFix" result="shape"/>
<feColorMatrix in="SourceAlpha" type="matrix" values="0 0 0 0 0 0 0 0 0 0 0 0 0 0 0 0 0 0 127 0" result="hardAlpha"/>
<feOffset dy="1.69887"/>
<feComposite in2="hardAlpha" operator="arithmetic" k2="-1" k3="1"/>
<feColorMatrix type="matrix" values="0 0 0 0 0.845833 0 0 0 0 0.723115 0 0 0 0 0.503976 0 0 0 1 0"/>
<feBlend mode="normal" in2="shape" result="effect1_innerShadow_1_306"/>
</filter>
<filter id="filter4_i_1_306" x="146.103" y="139.307" width="43.5269" height="51.4795" filterUnits="userSpaceOnUse" color-interpolation-filters="sRGB">
<feFlood flood-opacity="0" result="BackgroundImageFix"/>
<feBlend mode="normal" in="SourceGraphic" in2="BackgroundImageFix" result="shape"/>
<feColorMatrix in="SourceAlpha" type="matrix" values="0 0 0 0 0 0 0 0 0 0 0 0 0 0 0 0 0 0 127 0" result="hardAlpha"/>
<feOffset dy="1.69887"/>
<feComposite in2="hardAlpha" operator="arithmetic" k2="-1" k3="1"/>
<feColorMatrix type="matrix" values="0 0 0 0 0.845833 0 0 0 0 0.723115 0 0 0 0 0.503976 0 0 0 1 0"/>
<feBlend mode="normal" in2="shape" result="effect1_innerShadow_1_306"/>
</filter>
<linearGradient id="paint0_linear_1_306" x1="148.919" y1="141.837" x2="149.501" y2="253.132" gradientUnits="userSpaceOnUse">
<stop stop-color="#E3C795"/>
<stop offset="1" stop-color="#C2A674"/>
</linearGradient>
</defs>
</svg>
